<?xml version="1.0" encoding="UTF-8" standalone="no"?>
<!DOCTYPE svg PUBLIC "-//W3C//DTD SVG 1.1//EN"
 "http://www.w3.org/Graphics/SVG/1.1/DTD/svg11.dtd">
<!-- Generated by graphviz version 2.43.0 (0)
 -->
<!-- Title: G Pages: 1 -->
<svg width="344pt" height="188pt"
 viewBox="0.00 0.00 343.59 188.00" xmlns="http://www.w3.org/2000/svg" xmlns:xlink="http://www.w3.org/1999/xlink">
<g id="graph0" class="graph" transform="scale(1 1) rotate(0) translate(4 184)">
<title>G</title>
<polygon fill="white" stroke="transparent" points="-4,4 -4,-184 339.59,-184 339.59,4 -4,4"/>
<!-- :features:template:ui -->
<g id="node1" class="node">
<title>:features:template:ui</title>
<ellipse fill="none" stroke="black" cx="175.74" cy="-162" rx="108.58" ry="18"/>
<text text-anchor="middle" x="175.74" y="-158.3" font-family="Times,serif" font-size="14.00">:features:template:ui</text>
</g>
<!-- :core:ui -->
<g id="node2" class="node">
<title>:core:ui</title>
<ellipse fill="none" stroke="black" cx="175.74" cy="-90" rx="45.49" ry="18"/>
<text text-anchor="middle" x="175.74" y="-86.3" font-family="Times,serif" font-size="14.00">:core:ui</text>
</g>
<!-- :features:template:ui&#45;&gt;:core:ui -->
<g id="edge1" class="edge">
<title>:features:template:ui&#45;&gt;:core:ui</title>
<path fill="none" stroke="red" stroke-width="2" d="M175.74,-143.7C175.74,-135.98 175.74,-126.71 175.74,-118.11"/>
<polygon fill="red" stroke="red" stroke-width="2" points="179.24,-118.1 175.74,-108.1 172.24,-118.1 179.24,-118.1"/>
</g>
<!-- :core:component -->
<g id="node3" class="node">
<title>:core:component</title>
<ellipse fill="none" stroke="black" cx="87.74" cy="-18" rx="87.99" ry="18"/>
<text text-anchor="middle" x="87.74" y="-14.3" font-family="Times,serif" font-size="14.00">:core:component</text>
</g>
<!-- :core:ui&#45;&gt;:core:component -->
<g id="edge2" class="edge">
<title>:core:ui&#45;&gt;:core:component</title>
<path fill="none" stroke="red" stroke-width="2" d="M156.21,-73.46C144.66,-64.28 129.82,-52.47 116.91,-42.2"/>
<polygon fill="red" stroke="red" stroke-width="2" points="118.76,-39.2 108.75,-35.71 114.4,-44.68 118.76,-39.2"/>
</g>
<!-- :core:domain -->
<g id="node4" class="node">
<title>:core:domain</title>
<ellipse fill="none" stroke="black" cx="264.74" cy="-18" rx="70.69" ry="18"/>
<text text-anchor="middle" x="264.74" y="-14.3" font-family="Times,serif" font-size="14.00">:core:domain</text>
</g>
<!-- :core:ui&#45;&gt;:core:domain -->
<g id="edge3" class="edge">
<title>:core:ui&#45;&gt;:core:domain</title>
<path fill="none" stroke="black" d="M195.49,-73.46C207.45,-64.06 222.91,-51.9 236.18,-41.46"/>
<polygon fill="black" stroke="black" points="238.42,-44.15 244.12,-35.22 234.09,-38.65 238.42,-44.15"/>
</g>
</g>
</svg>
