<?xml version="1.0" encoding="UTF-8" standalone="no"?>
<!DOCTYPE svg PUBLIC "-//W3C//DTD SVG 1.1//EN"
 "http://www.w3.org/Graphics/SVG/1.1/DTD/svg11.dtd">
<!-- Generated by graphviz version 2.43.0 (0)
 -->
<!-- Title: G Pages: 1 -->
<svg width="394pt" height="188pt"
 viewBox="0.00 0.00 394.03 188.00" xmlns="http://www.w3.org/2000/svg" xmlns:xlink="http://www.w3.org/1999/xlink">
<g id="graph0" class="graph" transform="scale(1 1) rotate(0) translate(4 184)">
<title>G</title>
<polygon fill="white" stroke="transparent" points="-4,4 -4,-184 390.03,-184 390.03,4 -4,4"/>
<!-- :features:home:data -->
<g id="node1" class="node">
<title>:features:home:data</title>
<ellipse fill="none" stroke="black" cx="213.64" cy="-162" rx="103.98" ry="18"/>
<text text-anchor="middle" x="213.64" y="-158.3" font-family="Times,serif" font-size="14.00">:features:home:data</text>
</g>
<!-- :features:home:domain -->
<g id="node2" class="node">
<title>:features:home:domain</title>
<ellipse fill="none" stroke="black" cx="117.64" cy="-90" rx="117.78" ry="18"/>
<text text-anchor="middle" x="117.64" y="-86.3" font-family="Times,serif" font-size="14.00">:features:home:domain</text>
</g>
<!-- :features:home:data&#45;&gt;:features:home:domain -->
<g id="edge1" class="edge">
<title>:features:home:data&#45;&gt;:features:home:domain</title>
<path fill="none" stroke="red" stroke-width="2" d="M190.89,-144.41C178.31,-135.24 162.49,-123.7 148.78,-113.71"/>
<polygon fill="red" stroke="red" stroke-width="2" points="150.7,-110.78 140.56,-107.71 146.58,-116.43 150.7,-110.78"/>
</g>
<!-- :core:data -->
<g id="node3" class="node">
<title>:core:data</title>
<ellipse fill="none" stroke="black" cx="310.64" cy="-90" rx="57.39" ry="18"/>
<text text-anchor="middle" x="310.64" y="-86.3" font-family="Times,serif" font-size="14.00">:core:data</text>
</g>
<!-- :features:home:data&#45;&gt;:core:data -->
<g id="edge2" class="edge">
<title>:features:home:data&#45;&gt;:core:data</title>
<path fill="none" stroke="black" d="M236.63,-144.41C249.71,-134.97 266.26,-123.03 280.38,-112.83"/>
<polygon fill="black" stroke="black" points="282.76,-115.44 288.82,-106.75 278.66,-109.76 282.76,-115.44"/>
</g>
<!-- :core:domain -->
<g id="node4" class="node">
<title>:core:domain</title>
<ellipse fill="none" stroke="black" cx="132.64" cy="-18" rx="70.69" ry="18"/>
<text text-anchor="middle" x="132.64" y="-14.3" font-family="Times,serif" font-size="14.00">:core:domain</text>
</g>
<!-- :features:home:domain&#45;&gt;:core:domain -->
<g id="edge3" class="edge">
<title>:features:home:domain&#45;&gt;:core:domain</title>
<path fill="none" stroke="red" stroke-width="2" d="M121.35,-71.7C123,-63.98 124.99,-54.71 126.83,-46.11"/>
<polygon fill="red" stroke="red" stroke-width="2" points="130.3,-46.62 128.97,-36.1 123.46,-45.15 130.3,-46.62"/>
</g>
<!-- :core:data&#45;&gt;:core:domain -->
<g id="edge4" class="edge">
<title>:core:data&#45;&gt;:core:domain</title>
<path fill="none" stroke="black" d="M276.32,-75.5C248.61,-64.61 209.35,-49.17 178.87,-37.18"/>
<polygon fill="black" stroke="black" points="179.89,-33.82 169.31,-33.42 177.33,-40.34 179.89,-33.82"/>
</g>
<!-- :core:common -->
<g id="node5" class="node">
<title>:core:common</title>
<ellipse fill="none" stroke="black" cx="310.64" cy="-18" rx="75.29" ry="18"/>
<text text-anchor="middle" x="310.64" y="-14.3" font-family="Times,serif" font-size="14.00">:core:common</text>
</g>
<!-- :core:data&#45;&gt;:core:common -->
<g id="edge5" class="edge">
<title>:core:data&#45;&gt;:core:common</title>
<path fill="none" stroke="black" d="M310.64,-71.7C310.64,-63.98 310.64,-54.71 310.64,-46.11"/>
<polygon fill="black" stroke="black" points="314.14,-46.1 310.64,-36.1 307.14,-46.1 314.14,-46.1"/>
</g>
</g>
</svg>
