<?xml version="1.0" encoding="UTF-8" standalone="no"?>
<!DOCTYPE svg PUBLIC "-//W3C//DTD SVG 1.1//EN"
 "http://www.w3.org/Graphics/SVG/1.1/DTD/svg11.dtd">
<!-- Generated by graphviz version 2.43.0 (0)
 -->
<!-- Title: G Pages: 1 -->
<svg width="469pt" height="332pt"
 viewBox="0.00 0.00 469.38 332.00" xmlns="http://www.w3.org/2000/svg" xmlns:xlink="http://www.w3.org/1999/xlink">
<g id="graph0" class="graph" transform="scale(1 1) rotate(0) translate(4 328)">
<title>G</title>
<polygon fill="white" stroke="transparent" points="-4,4 -4,-328 465.38,-328 465.38,4 -4,4"/>
<!-- :navigation -->
<g id="node1" class="node">
<title>:navigation</title>
<ellipse fill="none" stroke="black" cx="252.74" cy="-306" rx="62.29" ry="18"/>
<text text-anchor="middle" x="252.74" y="-302.3" font-family="Times,serif" font-size="14.00">:navigation</text>
</g>
<!-- :features:home:ui -->
<g id="node2" class="node">
<title>:features:home:ui</title>
<ellipse fill="none" stroke="black" cx="252.74" cy="-234" rx="92.08" ry="18"/>
<text text-anchor="middle" x="252.74" y="-230.3" font-family="Times,serif" font-size="14.00">:features:home:ui</text>
</g>
<!-- :navigation&#45;&gt;:features:home:ui -->
<g id="edge1" class="edge">
<title>:navigation&#45;&gt;:features:home:ui</title>
<path fill="none" stroke="red" stroke-width="2" d="M252.74,-287.7C252.74,-279.98 252.74,-270.71 252.74,-262.11"/>
<polygon fill="red" stroke="red" stroke-width="2" points="256.24,-262.1 252.74,-252.1 249.24,-262.1 256.24,-262.1"/>
</g>
<!-- :core:ui -->
<g id="node3" class="node">
<title>:core:ui</title>
<ellipse fill="none" stroke="black" cx="162.74" cy="-162" rx="45.49" ry="18"/>
<text text-anchor="middle" x="162.74" y="-158.3" font-family="Times,serif" font-size="14.00">:core:ui</text>
</g>
<!-- :features:home:ui&#45;&gt;:core:ui -->
<g id="edge2" class="edge">
<title>:features:home:ui&#45;&gt;:core:ui</title>
<path fill="none" stroke="red" stroke-width="2" d="M231.41,-216.41C219.22,-206.93 203.78,-194.92 190.63,-184.69"/>
<polygon fill="red" stroke="red" stroke-width="2" points="192.42,-181.65 182.38,-178.27 188.12,-187.18 192.42,-181.65"/>
</g>
<!-- :features:home:domain -->
<g id="node4" class="node">
<title>:features:home:domain</title>
<ellipse fill="none" stroke="black" cx="343.74" cy="-162" rx="117.78" ry="18"/>
<text text-anchor="middle" x="343.74" y="-158.3" font-family="Times,serif" font-size="14.00">:features:home:domain</text>
</g>
<!-- :features:home:ui&#45;&gt;:features:home:domain -->
<g id="edge3" class="edge">
<title>:features:home:ui&#45;&gt;:features:home:domain</title>
<path fill="none" stroke="black" d="M274.31,-216.41C286.12,-207.32 300.94,-195.92 313.86,-185.99"/>
<polygon fill="black" stroke="black" points="316.22,-188.58 322.02,-179.71 311.96,-183.04 316.22,-188.58"/>
</g>
<!-- :core:component -->
<g id="node5" class="node">
<title>:core:component</title>
<ellipse fill="none" stroke="black" cx="87.74" cy="-90" rx="87.99" ry="18"/>
<text text-anchor="middle" x="87.74" y="-86.3" font-family="Times,serif" font-size="14.00">:core:component</text>
</g>
<!-- :core:ui&#45;&gt;:core:component -->
<g id="edge4" class="edge">
<title>:core:ui&#45;&gt;:core:component</title>
<path fill="none" stroke="black" d="M145.72,-145.12C136.12,-136.16 123.94,-124.79 113.23,-114.79"/>
<polygon fill="black" stroke="black" points="115.44,-112.06 105.74,-107.8 110.66,-117.18 115.44,-112.06"/>
</g>
<!-- :core:common -->
<g id="node6" class="node">
<title>:core:common</title>
<ellipse fill="none" stroke="black" cx="252.74" cy="-18" rx="75.29" ry="18"/>
<text text-anchor="middle" x="252.74" y="-14.3" font-family="Times,serif" font-size="14.00">:core:common</text>
</g>
<!-- :core:ui&#45;&gt;:core:common -->
<g id="edge5" class="edge">
<title>:core:ui&#45;&gt;:core:common</title>
<path fill="none" stroke="black" d="M173.24,-144.43C188.81,-119.88 218.13,-73.6 236.49,-44.65"/>
<polygon fill="black" stroke="black" points="239.63,-46.22 242.03,-35.9 233.72,-42.47 239.63,-46.22"/>
</g>
<!-- :core:domain -->
<g id="node7" class="node">
<title>:core:domain</title>
<ellipse fill="none" stroke="black" cx="302.74" cy="-90" rx="70.69" ry="18"/>
<text text-anchor="middle" x="302.74" y="-86.3" font-family="Times,serif" font-size="14.00">:core:domain</text>
</g>
<!-- :core:ui&#45;&gt;:core:domain -->
<g id="edge6" class="edge">
<title>:core:ui&#45;&gt;:core:domain</title>
<path fill="none" stroke="red" stroke-width="2" d="M189.74,-147.5C210.5,-137.12 239.5,-122.62 262.93,-110.91"/>
<polygon fill="red" stroke="red" stroke-width="2" points="264.55,-114.01 271.93,-106.41 261.42,-107.75 264.55,-114.01"/>
</g>
<!-- :features:home:domain&#45;&gt;:core:domain -->
<g id="edge8" class="edge">
<title>:features:home:domain&#45;&gt;:core:domain</title>
<path fill="none" stroke="black" d="M333.82,-144.05C329.05,-135.92 323.24,-126 317.94,-116.94"/>
<polygon fill="black" stroke="black" points="320.93,-115.14 312.86,-108.28 314.89,-118.67 320.93,-115.14"/>
</g>
<!-- :core:domain&#45;&gt;:core:common -->
<g id="edge7" class="edge">
<title>:core:domain&#45;&gt;:core:common</title>
<path fill="none" stroke="red" stroke-width="2" d="M290.64,-72.05C284.62,-63.63 277.23,-53.28 270.58,-43.97"/>
<polygon fill="red" stroke="red" stroke-width="2" points="273.39,-41.89 264.73,-35.79 267.7,-45.96 273.39,-41.89"/>
</g>
</g>
</svg>
