<?xml version="1.0" encoding="UTF-8" standalone="no"?>
<!DOCTYPE svg PUBLIC "-//W3C//DTD SVG 1.1//EN"
 "http://www.w3.org/Graphics/SVG/1.1/DTD/svg11.dtd">
<!-- Generated by graphviz version 2.43.0 (0)
 -->
<!-- Title: G Pages: 1 -->
<svg width="276pt" height="188pt"
 viewBox="0.00 0.00 275.78 188.00" xmlns="http://www.w3.org/2000/svg" xmlns:xlink="http://www.w3.org/1999/xlink">
<g id="graph0" class="graph" transform="scale(1 1) rotate(0) translate(4 184)">
<title>G</title>
<polygon fill="white" stroke="transparent" points="-4,4 -4,-184 271.78,-184 271.78,4 -4,4"/>
<!-- :features:template:domain -->
<g id="node1" class="node">
<title>:features:template:domain</title>
<ellipse fill="none" stroke="black" cx="133.89" cy="-162" rx="133.78" ry="18"/>
<text text-anchor="middle" x="133.89" y="-158.3" font-family="Times,serif" font-size="14.00">:features:template:domain</text>
</g>
<!-- :core:domain -->
<g id="node2" class="node">
<title>:core:domain</title>
<ellipse fill="none" stroke="black" cx="133.89" cy="-90" rx="70.69" ry="18"/>
<text text-anchor="middle" x="133.89" y="-86.3" font-family="Times,serif" font-size="14.00">:core:domain</text>
</g>
<!-- :features:template:domain&#45;&gt;:core:domain -->
<g id="edge1" class="edge">
<title>:features:template:domain&#45;&gt;:core:domain</title>
<path fill="none" stroke="red" stroke-width="2" d="M133.89,-143.7C133.89,-135.98 133.89,-126.71 133.89,-118.11"/>
<polygon fill="red" stroke="red" stroke-width="2" points="137.39,-118.1 133.89,-108.1 130.39,-118.1 137.39,-118.1"/>
</g>
<!-- :core:common -->
<g id="node3" class="node">
<title>:core:common</title>
<ellipse fill="none" stroke="black" cx="133.89" cy="-18" rx="75.29" ry="18"/>
<text text-anchor="middle" x="133.89" y="-14.3" font-family="Times,serif" font-size="14.00">:core:common</text>
</g>
<!-- :core:domain&#45;&gt;:core:common -->
<g id="edge2" class="edge">
<title>:core:domain&#45;&gt;:core:common</title>
<path fill="none" stroke="red" stroke-width="2" d="M133.89,-71.7C133.89,-63.98 133.89,-54.71 133.89,-46.11"/>
<polygon fill="red" stroke="red" stroke-width="2" points="137.39,-46.1 133.89,-36.1 130.39,-46.1 137.39,-46.1"/>
</g>
</g>
</svg>
