<?xml version="1.0" encoding="UTF-8" standalone="no"?>
<!DOCTYPE svg PUBLIC "-//W3C//DTD SVG 1.1//EN"
 "http://www.w3.org/Graphics/SVG/1.1/DTD/svg11.dtd">
<!-- Generated by graphviz version 2.43.0 (0)
 -->
<!-- Title: G Pages: 1 -->
<svg width="363pt" height="260pt"
 viewBox="0.00 0.00 363.08 260.00" xmlns="http://www.w3.org/2000/svg" xmlns:xlink="http://www.w3.org/1999/xlink">
<g id="graph0" class="graph" transform="scale(1 1) rotate(0) translate(4 256)">
<title>G</title>
<polygon fill="white" stroke="transparent" points="-4,4 -4,-256 359.08,-256 359.08,4 -4,4"/>
<!-- :features:template:data -->
<g id="node1" class="node">
<title>:features:template:data</title>
<ellipse fill="none" stroke="black" cx="120.24" cy="-234" rx="120.48" ry="18"/>
<text text-anchor="middle" x="120.24" y="-230.3" font-family="Times,serif" font-size="14.00">:features:template:data</text>
</g>
<!-- :core:data -->
<g id="node2" class="node">
<title>:core:data</title>
<ellipse fill="none" stroke="black" cx="120.24" cy="-162" rx="57.39" ry="18"/>
<text text-anchor="middle" x="120.24" y="-158.3" font-family="Times,serif" font-size="14.00">:core:data</text>
</g>
<!-- :features:template:data&#45;&gt;:core:data -->
<g id="edge1" class="edge">
<title>:features:template:data&#45;&gt;:core:data</title>
<path fill="none" stroke="red" stroke-width="2" d="M120.24,-215.7C120.24,-207.98 120.24,-198.71 120.24,-190.11"/>
<polygon fill="red" stroke="red" stroke-width="2" points="123.74,-190.1 120.24,-180.1 116.74,-190.1 123.74,-190.1"/>
</g>
<!-- :core:common -->
<g id="node3" class="node">
<title>:core:common</title>
<ellipse fill="none" stroke="black" cx="120.24" cy="-18" rx="75.29" ry="18"/>
<text text-anchor="middle" x="120.24" y="-14.3" font-family="Times,serif" font-size="14.00">:core:common</text>
</g>
<!-- :core:data&#45;&gt;:core:common -->
<g id="edge2" class="edge">
<title>:core:data&#45;&gt;:core:common</title>
<path fill="none" stroke="black" d="M84.07,-147.99C66.27,-139.53 46.48,-126.57 36.24,-108 28.51,-93.99 28.51,-86.01 36.24,-72 44.16,-57.63 57.8,-46.62 71.81,-38.46"/>
<polygon fill="black" stroke="black" points="73.87,-41.32 81.02,-33.5 70.55,-35.16 73.87,-41.32"/>
</g>
<!-- :core:network -->
<g id="node4" class="node">
<title>:core:network</title>
<ellipse fill="none" stroke="black" cx="120.24" cy="-90" rx="74.99" ry="18"/>
<text text-anchor="middle" x="120.24" y="-86.3" font-family="Times,serif" font-size="14.00">:core:network</text>
</g>
<!-- :core:data&#45;&gt;:core:network -->
<g id="edge3" class="edge">
<title>:core:data&#45;&gt;:core:network</title>
<path fill="none" stroke="red" stroke-width="2" d="M120.24,-143.7C120.24,-135.98 120.24,-126.71 120.24,-118.11"/>
<polygon fill="red" stroke="red" stroke-width="2" points="123.74,-118.1 120.24,-108.1 116.74,-118.1 123.74,-118.1"/>
</g>
<!-- :core:domain -->
<g id="node5" class="node">
<title>:core:domain</title>
<ellipse fill="none" stroke="black" cx="284.24" cy="-90" rx="70.69" ry="18"/>
<text text-anchor="middle" x="284.24" y="-86.3" font-family="Times,serif" font-size="14.00">:core:domain</text>
</g>
<!-- :core:data&#45;&gt;:core:domain -->
<g id="edge4" class="edge">
<title>:core:data&#45;&gt;:core:domain</title>
<path fill="none" stroke="black" d="M153.03,-147C178.03,-136.33 212.72,-121.53 240.15,-109.82"/>
<polygon fill="black" stroke="black" points="241.7,-112.96 249.52,-105.82 238.95,-106.53 241.7,-112.96"/>
</g>
<!-- :core:network&#45;&gt;:core:common -->
<g id="edge5" class="edge">
<title>:core:network&#45;&gt;:core:common</title>
<path fill="none" stroke="red" stroke-width="2" d="M120.24,-71.7C120.24,-63.98 120.24,-54.71 120.24,-46.11"/>
<polygon fill="red" stroke="red" stroke-width="2" points="123.74,-46.1 120.24,-36.1 116.74,-46.1 123.74,-46.1"/>
</g>
<!-- :core:domain&#45;&gt;:core:common -->
<g id="edge6" class="edge">
<title>:core:domain&#45;&gt;:core:common</title>
<path fill="none" stroke="black" d="M249.46,-74.15C224.76,-63.61 191.38,-49.36 164.73,-37.99"/>
<polygon fill="black" stroke="black" points="165.82,-34.65 155.25,-33.94 163.07,-41.09 165.82,-34.65"/>
</g>
</g>
</svg>
