<?xml version="1.0" encoding="UTF-8" standalone="no"?>
<!DOCTYPE svg PUBLIC "-//W3C//DTD SVG 1.1//EN"
 "http://www.w3.org/Graphics/SVG/1.1/DTD/svg11.dtd">
<!-- Generated by graphviz version 2.43.0 (0)
 -->
<!-- Title: G Pages: 1 -->
<svg width="318pt" height="116pt"
 viewBox="0.00 0.00 318.24 116.00" xmlns="http://www.w3.org/2000/svg" xmlns:xlink="http://www.w3.org/1999/xlink">
<g id="graph0" class="graph" transform="scale(1 1) rotate(0) translate(4 112)">
<title>G</title>
<polygon fill="white" stroke="transparent" points="-4,4 -4,-112 314.24,-112 314.24,4 -4,4"/>
<!-- :core:data -->
<g id="node1" class="node">
<title>:core:data</title>
<ellipse fill="none" stroke="black" cx="152.84" cy="-90" rx="57.39" ry="18"/>
<text text-anchor="middle" x="152.84" y="-86.3" font-family="Times,serif" font-size="14.00">:core:data</text>
</g>
<!-- :core:domain -->
<g id="node2" class="node">
<title>:core:domain</title>
<ellipse fill="none" stroke="black" cx="70.84" cy="-18" rx="70.69" ry="18"/>
<text text-anchor="middle" x="70.84" y="-14.3" font-family="Times,serif" font-size="14.00">:core:domain</text>
</g>
<!-- :core:data&#45;&gt;:core:domain -->
<g id="edge1" class="edge">
<title>:core:data&#45;&gt;:core:domain</title>
<path fill="none" stroke="red" stroke-width="2" d="M133.83,-72.76C123.14,-63.64 109.62,-52.1 97.86,-42.06"/>
<polygon fill="red" stroke="red" stroke-width="2" points="99.92,-39.22 90.04,-35.39 95.38,-44.54 99.92,-39.22"/>
</g>
<!-- :core:common -->
<g id="node3" class="node">
<title>:core:common</title>
<ellipse fill="none" stroke="black" cx="234.84" cy="-18" rx="75.29" ry="18"/>
<text text-anchor="middle" x="234.84" y="-14.3" font-family="Times,serif" font-size="14.00">:core:common</text>
</g>
<!-- :core:data&#45;&gt;:core:common -->
<g id="edge2" class="edge">
<title>:core:data&#45;&gt;:core:common</title>
<path fill="none" stroke="black" d="M171.86,-72.76C182.47,-63.71 195.87,-52.27 207.58,-42.28"/>
<polygon fill="black" stroke="black" points="210.03,-44.79 215.36,-35.63 205.48,-39.46 210.03,-44.79"/>
</g>
</g>
</svg>
