<?xml version="1.0" encoding="UTF-8" standalone="no"?>
<!DOCTYPE svg PUBLIC "-//W3C//DTD SVG 1.1//EN"
 "http://www.w3.org/Graphics/SVG/1.1/DTD/svg11.dtd">
<!-- Generated by graphviz version 2.43.0 (0)
 -->
<!-- Title: G Pages: 1 -->
<svg width="333pt" height="188pt"
 viewBox="0.00 0.00 332.93 188.00" xmlns="http://www.w3.org/2000/svg" xmlns:xlink="http://www.w3.org/1999/xlink">
<g id="graph0" class="graph" transform="scale(1 1) rotate(0) translate(4 184)">
<title>G</title>
<polygon fill="white" stroke="transparent" points="-4,4 -4,-184 328.93,-184 328.93,4 -4,4"/>
<!-- :core:data -->
<g id="node1" class="node">
<title>:core:data</title>
<ellipse fill="none" stroke="black" cx="238.74" cy="-162" rx="57.39" ry="18"/>
<text text-anchor="middle" x="238.74" y="-158.3" font-family="Times,serif" font-size="14.00">:core:data</text>
</g>
<!-- :core:network -->
<g id="node2" class="node">
<title>:core:network</title>
<ellipse fill="none" stroke="black" cx="74.74" cy="-90" rx="74.99" ry="18"/>
<text text-anchor="middle" x="74.74" y="-86.3" font-family="Times,serif" font-size="14.00">:core:network</text>
</g>
<!-- :core:data&#45;&gt;:core:network -->
<g id="edge1" class="edge">
<title>:core:data&#45;&gt;:core:network</title>
<path fill="none" stroke="red" stroke-width="2" d="M205.95,-147C181.03,-136.37 146.49,-121.63 119.11,-109.94"/>
<polygon fill="red" stroke="red" stroke-width="2" points="120.32,-106.65 109.75,-105.94 117.57,-113.09 120.32,-106.65"/>
</g>
<!-- :core:domain -->
<g id="node3" class="node">
<title>:core:domain</title>
<ellipse fill="none" stroke="black" cx="238.74" cy="-90" rx="70.69" ry="18"/>
<text text-anchor="middle" x="238.74" y="-86.3" font-family="Times,serif" font-size="14.00">:core:domain</text>
</g>
<!-- :core:data&#45;&gt;:core:domain -->
<g id="edge2" class="edge">
<title>:core:data&#45;&gt;:core:domain</title>
<path fill="none" stroke="black" d="M238.74,-143.7C238.74,-135.98 238.74,-126.71 238.74,-118.11"/>
<polygon fill="black" stroke="black" points="242.24,-118.1 238.74,-108.1 235.24,-118.1 242.24,-118.1"/>
</g>
<!-- :core:common -->
<g id="node4" class="node">
<title>:core:common</title>
<ellipse fill="none" stroke="black" cx="205.74" cy="-18" rx="75.29" ry="18"/>
<text text-anchor="middle" x="205.74" y="-14.3" font-family="Times,serif" font-size="14.00">:core:common</text>
</g>
<!-- :core:data&#45;&gt;:core:common -->
<g id="edge3" class="edge">
<title>:core:data&#45;&gt;:core:common</title>
<path fill="none" stroke="black" d="M273.24,-147.57C290.2,-138.99 309.05,-126.05 318.74,-108 326.31,-93.9 327.33,-85.5 318.74,-72 307.41,-54.16 288.31,-42.22 269,-34.28"/>
<polygon fill="black" stroke="black" points="270.13,-30.96 259.54,-30.69 267.65,-37.51 270.13,-30.96"/>
</g>
<!-- :core:network&#45;&gt;:core:common -->
<g id="edge4" class="edge">
<title>:core:network&#45;&gt;:core:common</title>
<path fill="none" stroke="red" stroke-width="2" d="M104.14,-73.29C122.85,-63.29 147.28,-50.24 167.49,-39.44"/>
<polygon fill="red" stroke="red" stroke-width="2" points="169.27,-42.46 176.44,-34.66 165.97,-36.28 169.27,-42.46"/>
</g>
</g>
</svg>
