<?xml version="1.0" encoding="UTF-8" standalone="no"?>
<!DOCTYPE svg PUBLIC "-//W3C//DTD SVG 1.1//EN"
 "http://www.w3.org/Graphics/SVG/1.1/DTD/svg11.dtd">
<!-- Generated by graphviz version 10.0.1 (20240210.2158)
 -->
<!-- Title: G Pages: 1 -->
<svg width="290pt" height="188pt"
 viewBox="0.00 0.00 289.57 188.00" xmlns="http://www.w3.org/2000/svg" xmlns:xlink="http://www.w3.org/1999/xlink">
<g id="graph0" class="graph" transform="scale(1 1) rotate(0) translate(4 184)">
<title>G</title>
<polygon fill="white" stroke="none" points="-4,4 -4,-184 285.57,-184 285.57,4 -4,4"/>
<!-- :features:template:ui -->
<g id="node1" class="node">
<title>:features:template:ui</title>
<ellipse fill="none" stroke="black" cx="148.02" cy="-162" rx="83" ry="18"/>
<text text-anchor="middle" x="148.02" y="-156.57" font-family="Times New Roman,serif" font-size="14.00">:features:template:ui</text>
</g>
<!-- :core:ui -->
<g id="node2" class="node">
<title>:core:ui</title>
<ellipse fill="none" stroke="black" cx="148.02" cy="-90" rx="37.59" ry="18"/>
<text text-anchor="middle" x="148.02" y="-84.58" font-family="Times New Roman,serif" font-size="14.00">:core:ui</text>
</g>
<!-- :features:template:ui&#45;&gt;:core:ui -->
<g id="edge1" class="edge">
<title>:features:template:ui&#45;&gt;:core:ui</title>
<path fill="none" stroke="red" stroke-width="2" d="M148.02,-143.7C148.02,-136.41 148.02,-127.73 148.02,-119.54"/>
<polygon fill="red" stroke="red" stroke-width="2" points="151.52,-121.13 148.02,-111.13 144.52,-121.13 151.52,-121.13"/>
</g>
<!-- :core:component -->
<g id="node3" class="node">
<title>:core:component</title>
<ellipse fill="none" stroke="black" cx="73.02" cy="-18" rx="73.02" ry="18"/>
<text text-anchor="middle" x="73.02" y="-12.57" font-family="Times New Roman,serif" font-size="14.00">:core:component</text>
</g>
<!-- :core:ui&#45;&gt;:core:component -->
<g id="edge2" class="edge">
<title>:core:ui&#45;&gt;:core:component</title>
<path fill="none" stroke="red" stroke-width="2" d="M131.37,-73.46C121.91,-64.63 109.84,-53.37 99.14,-43.38"/>
<polygon fill="red" stroke="red" stroke-width="2" points="102.84,-42.04 93.14,-37.78 98.06,-47.16 102.84,-42.04"/>
</g>
<!-- :core:domain -->
<g id="node4" class="node">
<title>:core:domain</title>
<ellipse fill="none" stroke="black" cx="223.02" cy="-18" rx="58.55" ry="18"/>
<text text-anchor="middle" x="223.02" y="-12.57" font-family="Times New Roman,serif" font-size="14.00">:core:domain</text>
</g>
<!-- :core:ui&#45;&gt;:core:domain -->
<g id="edge3" class="edge">
<title>:core:ui&#45;&gt;:core:domain</title>
<path fill="none" stroke="black" d="M164.66,-73.46C174.2,-64.57 186.37,-53.21 197.13,-43.16"/>
<polygon fill="black" stroke="black" points="199.35,-45.88 204.27,-36.5 194.57,-40.76 199.35,-45.88"/>
</g>
</g>
</svg>
