<?xml version="1.0" encoding="UTF-8" standalone="no"?>
<!DOCTYPE svg PUBLIC "-//W3C//DTD SVG 1.1//EN"
 "http://www.w3.org/Graphics/SVG/1.1/DTD/svg11.dtd">
<!-- Generated by graphviz version 2.43.0 (0)
 -->
<!-- Title: G Pages: 1 -->
<svg width="609pt" height="404pt"
 viewBox="0.00 0.00 609.49 404.00" xmlns="http://www.w3.org/2000/svg" xmlns:xlink="http://www.w3.org/1999/xlink">
<g id="graph0" class="graph" transform="scale(1 1) rotate(0) translate(4 400)">
<title>G</title>
<polygon fill="white" stroke="transparent" points="-4,4 -4,-400 605.49,-400 605.49,4 -4,4"/>
<!-- :app -->
<g id="node1" class="node">
<title>:app</title>
<ellipse fill="none" stroke="black" cx="195.74" cy="-378" rx="30.59" ry="18"/>
<text text-anchor="middle" x="195.74" y="-374.3" font-family="Times,serif" font-size="14.00">:app</text>
</g>
<!-- :core:component -->
<g id="node2" class="node">
<title>:core:component</title>
<ellipse fill="none" stroke="black" cx="87.74" cy="-90" rx="87.99" ry="18"/>
<text text-anchor="middle" x="87.74" y="-86.3" font-family="Times,serif" font-size="14.00">:core:component</text>
</g>
<!-- :app&#45;&gt;:core:component -->
<g id="edge1" class="edge">
<title>:app&#45;&gt;:core:component</title>
<path fill="none" stroke="black" d="M174.03,-365.08C158.55,-355.65 138.17,-341.23 124.74,-324 77.2,-263.02 79.66,-165.26 84.22,-118.13"/>
<polygon fill="black" stroke="black" points="87.71,-118.4 85.31,-108.08 80.76,-117.65 87.71,-118.4"/>
</g>
<!-- :navigation -->
<g id="node3" class="node">
<title>:navigation</title>
<ellipse fill="none" stroke="black" cx="195.74" cy="-306" rx="62.29" ry="18"/>
<text text-anchor="middle" x="195.74" y="-302.3" font-family="Times,serif" font-size="14.00">:navigation</text>
</g>
<!-- :app&#45;&gt;:navigation -->
<g id="edge2" class="edge">
<title>:app&#45;&gt;:navigation</title>
<path fill="none" stroke="red" stroke-width="2" d="M195.74,-359.7C195.74,-351.98 195.74,-342.71 195.74,-334.11"/>
<polygon fill="red" stroke="red" stroke-width="2" points="199.24,-334.1 195.74,-324.1 192.24,-334.1 199.24,-334.1"/>
</g>
<!-- :features:home:data -->
<g id="node4" class="node">
<title>:features:home:data</title>
<ellipse fill="none" stroke="black" cx="409.74" cy="-234" rx="103.98" ry="18"/>
<text text-anchor="middle" x="409.74" y="-230.3" font-family="Times,serif" font-size="14.00">:features:home:data</text>
</g>
<!-- :app&#45;&gt;:features:home:data -->
<g id="edge3" class="edge">
<title>:app&#45;&gt;:features:home:data</title>
<path fill="none" stroke="black" d="M215.49,-363.9C252.16,-339.56 331.13,-287.17 376.27,-257.21"/>
<polygon fill="black" stroke="black" points="378.43,-259.98 384.83,-251.53 374.56,-254.14 378.43,-259.98"/>
</g>
<!-- :features:home:ui -->
<g id="node5" class="node">
<title>:features:home:ui</title>
<ellipse fill="none" stroke="black" cx="195.74" cy="-234" rx="92.08" ry="18"/>
<text text-anchor="middle" x="195.74" y="-230.3" font-family="Times,serif" font-size="14.00">:features:home:ui</text>
</g>
<!-- :navigation&#45;&gt;:features:home:ui -->
<g id="edge4" class="edge">
<title>:navigation&#45;&gt;:features:home:ui</title>
<path fill="none" stroke="red" stroke-width="2" d="M195.74,-287.7C195.74,-279.98 195.74,-270.71 195.74,-262.11"/>
<polygon fill="red" stroke="red" stroke-width="2" points="199.24,-262.1 195.74,-252.1 192.24,-262.1 199.24,-262.1"/>
</g>
<!-- :features:home:domain -->
<g id="node7" class="node">
<title>:features:home:domain</title>
<ellipse fill="none" stroke="black" cx="329.74" cy="-162" rx="117.78" ry="18"/>
<text text-anchor="middle" x="329.74" y="-158.3" font-family="Times,serif" font-size="14.00">:features:home:domain</text>
</g>
<!-- :features:home:data&#45;&gt;:features:home:domain -->
<g id="edge12" class="edge">
<title>:features:home:data&#45;&gt;:features:home:domain</title>
<path fill="none" stroke="black" d="M390.38,-216.05C380.26,-207.2 367.71,-196.22 356.66,-186.55"/>
<polygon fill="black" stroke="black" points="358.76,-183.74 348.93,-179.79 354.15,-189.01 358.76,-183.74"/>
</g>
<!-- :core:data -->
<g id="node10" class="node">
<title>:core:data</title>
<ellipse fill="none" stroke="black" cx="522.74" cy="-162" rx="57.39" ry="18"/>
<text text-anchor="middle" x="522.74" y="-158.3" font-family="Times,serif" font-size="14.00">:core:data</text>
</g>
<!-- :features:home:data&#45;&gt;:core:data -->
<g id="edge13" class="edge">
<title>:features:home:data&#45;&gt;:core:data</title>
<path fill="none" stroke="black" d="M436.24,-216.59C452.12,-206.75 472.47,-194.14 489.44,-183.63"/>
<polygon fill="black" stroke="black" points="491.3,-186.59 497.96,-178.35 487.62,-180.64 491.3,-186.59"/>
</g>
<!-- :core:ui -->
<g id="node6" class="node">
<title>:core:ui</title>
<ellipse fill="none" stroke="black" cx="148.74" cy="-162" rx="45.49" ry="18"/>
<text text-anchor="middle" x="148.74" y="-158.3" font-family="Times,serif" font-size="14.00">:core:ui</text>
</g>
<!-- :features:home:ui&#45;&gt;:core:ui -->
<g id="edge5" class="edge">
<title>:features:home:ui&#45;&gt;:core:ui</title>
<path fill="none" stroke="red" stroke-width="2" d="M184.36,-216.05C178.76,-207.71 171.9,-197.49 165.7,-188.25"/>
<polygon fill="red" stroke="red" stroke-width="2" points="168.49,-186.14 160.01,-179.79 162.68,-190.04 168.49,-186.14"/>
</g>
<!-- :features:home:ui&#45;&gt;:features:home:domain -->
<g id="edge6" class="edge">
<title>:features:home:ui&#45;&gt;:features:home:domain</title>
<path fill="none" stroke="black" d="M226.48,-216.94C245.11,-207.21 269.09,-194.68 289.25,-184.15"/>
<polygon fill="black" stroke="black" points="290.97,-187.2 298.21,-179.47 287.73,-181 290.97,-187.2"/>
</g>
<!-- :core:ui&#45;&gt;:core:component -->
<g id="edge7" class="edge">
<title>:core:ui&#45;&gt;:core:component</title>
<path fill="none" stroke="black" d="M134.59,-144.76C127.12,-136.18 117.77,-125.46 109.4,-115.86"/>
<polygon fill="black" stroke="black" points="111.87,-113.36 102.66,-108.12 106.6,-117.96 111.87,-113.36"/>
</g>
<!-- :core:common -->
<g id="node8" class="node">
<title>:core:common</title>
<ellipse fill="none" stroke="black" cx="373.74" cy="-18" rx="75.29" ry="18"/>
<text text-anchor="middle" x="373.74" y="-14.3" font-family="Times,serif" font-size="14.00">:core:common</text>
</g>
<!-- :core:ui&#45;&gt;:core:common -->
<g id="edge8" class="edge">
<title>:core:ui&#45;&gt;:core:common</title>
<path fill="none" stroke="black" d="M162.94,-144.66C180.54,-125.23 212.19,-92.81 244.74,-72 267.96,-57.16 296.04,-45.04 320.05,-36.15"/>
<polygon fill="black" stroke="black" points="321.51,-39.35 329.73,-32.66 319.13,-32.76 321.51,-39.35"/>
</g>
<!-- :core:domain -->
<g id="node9" class="node">
<title>:core:domain</title>
<ellipse fill="none" stroke="black" cx="324.74" cy="-90" rx="70.69" ry="18"/>
<text text-anchor="middle" x="324.74" y="-86.3" font-family="Times,serif" font-size="14.00">:core:domain</text>
</g>
<!-- :core:ui&#45;&gt;:core:domain -->
<g id="edge9" class="edge">
<title>:core:ui&#45;&gt;:core:domain</title>
<path fill="none" stroke="red" stroke-width="2" d="M179.8,-148.65C207.26,-137.73 247.67,-121.65 278.86,-109.25"/>
<polygon fill="red" stroke="red" stroke-width="2" points="280.21,-112.48 288.21,-105.53 277.63,-105.97 280.21,-112.48"/>
</g>
<!-- :features:home:domain&#45;&gt;:core:domain -->
<g id="edge11" class="edge">
<title>:features:home:domain&#45;&gt;:core:domain</title>
<path fill="none" stroke="black" d="M328.51,-143.7C327.96,-135.98 327.29,-126.71 326.68,-118.11"/>
<polygon fill="black" stroke="black" points="330.17,-117.83 325.96,-108.1 323.19,-118.33 330.17,-117.83"/>
</g>
<!-- :core:domain&#45;&gt;:core:common -->
<g id="edge10" class="edge">
<title>:core:domain&#45;&gt;:core:common</title>
<path fill="none" stroke="red" stroke-width="2" d="M336.6,-72.05C342.44,-63.71 349.6,-53.49 356.07,-44.25"/>
<polygon fill="red" stroke="red" stroke-width="2" points="359.12,-45.99 361.99,-35.79 353.39,-41.97 359.12,-45.99"/>
</g>
<!-- :core:data&#45;&gt;:core:common -->
<g id="edge14" class="edge">
<title>:core:data&#45;&gt;:core:common</title>
<path fill="none" stroke="black" d="M495.59,-146.05C479.31,-136.38 458.74,-122.85 442.74,-108 422.21,-88.94 403.04,-63.33 390.15,-44.48"/>
<polygon fill="black" stroke="black" points="392.99,-42.43 384.51,-36.08 387.18,-46.33 392.99,-42.43"/>
</g>
<!-- :core:data&#45;&gt;:core:domain -->
<g id="edge16" class="edge">
<title>:core:data&#45;&gt;:core:domain</title>
<path fill="none" stroke="black" d="M485.96,-148C454.38,-136.83 408.58,-120.64 373.86,-108.36"/>
<polygon fill="black" stroke="black" points="374.97,-105.05 364.38,-105.01 372.64,-111.65 374.97,-105.05"/>
</g>
<!-- :core:network -->
<g id="node11" class="node">
<title>:core:network</title>
<ellipse fill="none" stroke="black" cx="526.74" cy="-90" rx="74.99" ry="18"/>
<text text-anchor="middle" x="526.74" y="-86.3" font-family="Times,serif" font-size="14.00">:core:network</text>
</g>
<!-- :core:data&#45;&gt;:core:network -->
<g id="edge15" class="edge">
<title>:core:data&#45;&gt;:core:network</title>
<path fill="none" stroke="black" d="M523.73,-143.7C524.17,-135.98 524.7,-126.71 525.19,-118.11"/>
<polygon fill="black" stroke="black" points="528.69,-118.29 525.76,-108.1 521.7,-117.89 528.69,-118.29"/>
</g>
<!-- :core:network&#45;&gt;:core:common -->
<g id="edge17" class="edge">
<title>:core:network&#45;&gt;:core:common</title>
<path fill="none" stroke="black" d="M493.54,-73.81C470.97,-63.48 440.88,-49.72 416.51,-38.57"/>
<polygon fill="black" stroke="black" points="417.69,-35.26 407.14,-34.28 414.78,-41.62 417.69,-35.26"/>
</g>
</g>
</svg>
