<?xml version="1.0" encoding="UTF-8" standalone="no"?>
<!DOCTYPE svg PUBLIC "-//W3C//DTD SVG 1.1//EN"
 "http://www.w3.org/Graphics/SVG/1.1/DTD/svg11.dtd">
<!-- Generated by graphviz version 2.43.0 (0)
 -->
<!-- Title: G Pages: 1 -->
<svg width="545pt" height="260pt"
 viewBox="0.00 0.00 545.14 260.00" xmlns="http://www.w3.org/2000/svg" xmlns:xlink="http://www.w3.org/1999/xlink">
<g id="graph0" class="graph" transform="scale(1 1) rotate(0) translate(4 256)">
<title>G</title>
<polygon fill="white" stroke="transparent" points="-4,4 -4,-256 541.14,-256 541.14,4 -4,4"/>
<!-- :navigation -->
<g id="node1" class="node">
<title>:navigation</title>
<ellipse fill="none" stroke="black" cx="274.74" cy="-234" rx="62.29" ry="18"/>
<text text-anchor="middle" x="274.74" y="-230.3" font-family="Times,serif" font-size="14.00">:navigation</text>
</g>
<!-- :features:home:ui -->
<g id="node2" class="node">
<title>:features:home:ui</title>
<ellipse fill="none" stroke="black" cx="167.74" cy="-162" rx="92.08" ry="18"/>
<text text-anchor="middle" x="167.74" y="-158.3" font-family="Times,serif" font-size="14.00">:features:home:ui</text>
</g>
<!-- :navigation&#45;&gt;:features:home:ui -->
<g id="edge1" class="edge">
<title>:navigation&#45;&gt;:features:home:ui</title>
<path fill="none" stroke="red" stroke-width="2" d="M250.73,-217.29C236.17,-207.77 217.38,-195.47 201.36,-184.99"/>
<polygon fill="red" stroke="red" stroke-width="2" points="203.08,-181.93 192.79,-179.39 199.24,-187.79 203.08,-181.93"/>
</g>
<!-- :features:home:data -->
<g id="node3" class="node">
<title>:features:home:data</title>
<ellipse fill="none" stroke="black" cx="381.74" cy="-162" rx="103.98" ry="18"/>
<text text-anchor="middle" x="381.74" y="-158.3" font-family="Times,serif" font-size="14.00">:features:home:data</text>
</g>
<!-- :navigation&#45;&gt;:features:home:data -->
<g id="edge2" class="edge">
<title>:navigation&#45;&gt;:features:home:data</title>
<path fill="none" stroke="black" d="M298.76,-217.29C313.21,-207.84 331.84,-195.65 347.78,-185.22"/>
<polygon fill="black" stroke="black" points="349.87,-188.04 356.32,-179.63 346.03,-182.18 349.87,-188.04"/>
</g>
<!-- :core:ui -->
<g id="node4" class="node">
<title>:core:ui</title>
<ellipse fill="none" stroke="black" cx="87.74" cy="-90" rx="45.49" ry="18"/>
<text text-anchor="middle" x="87.74" y="-86.3" font-family="Times,serif" font-size="14.00">:core:ui</text>
</g>
<!-- :features:home:ui&#45;&gt;:core:ui -->
<g id="edge3" class="edge">
<title>:features:home:ui&#45;&gt;:core:ui</title>
<path fill="none" stroke="red" stroke-width="2" d="M148.38,-144.05C137.78,-134.78 124.53,-123.19 113.11,-113.2"/>
<polygon fill="red" stroke="red" stroke-width="2" points="115.39,-110.54 105.56,-106.59 110.78,-115.81 115.39,-110.54"/>
</g>
<!-- :features:home:domain -->
<g id="node5" class="node">
<title>:features:home:domain</title>
<ellipse fill="none" stroke="black" cx="268.74" cy="-90" rx="117.78" ry="18"/>
<text text-anchor="middle" x="268.74" y="-86.3" font-family="Times,serif" font-size="14.00">:features:home:domain</text>
</g>
<!-- :features:home:ui&#45;&gt;:features:home:domain -->
<g id="edge4" class="edge">
<title>:features:home:ui&#45;&gt;:features:home:domain</title>
<path fill="none" stroke="black" d="M191.42,-144.59C204.78,-135.33 221.66,-123.63 236.24,-113.53"/>
<polygon fill="black" stroke="black" points="238.28,-116.37 244.51,-107.8 234.3,-110.61 238.28,-116.37"/>
</g>
<!-- :features:home:data&#45;&gt;:features:home:domain -->
<g id="edge8" class="edge">
<title>:features:home:data&#45;&gt;:features:home:domain</title>
<path fill="none" stroke="black" d="M355.25,-144.59C340.06,-135.18 320.79,-123.24 304.3,-113.02"/>
<polygon fill="black" stroke="black" points="305.81,-109.84 295.46,-107.55 302.12,-115.79 305.81,-109.84"/>
</g>
<!-- :core:data -->
<g id="node8" class="node">
<title>:core:data</title>
<ellipse fill="none" stroke="black" cx="461.74" cy="-90" rx="57.39" ry="18"/>
<text text-anchor="middle" x="461.74" y="-86.3" font-family="Times,serif" font-size="14.00">:core:data</text>
</g>
<!-- :features:home:data&#45;&gt;:core:data -->
<g id="edge9" class="edge">
<title>:features:home:data&#45;&gt;:core:data</title>
<path fill="none" stroke="black" d="M401.11,-144.05C411.45,-135 424.33,-123.73 435.56,-113.91"/>
<polygon fill="black" stroke="black" points="438.16,-116.29 443.38,-107.07 433.55,-111.02 438.16,-116.29"/>
</g>
<!-- :core:component -->
<g id="node6" class="node">
<title>:core:component</title>
<ellipse fill="none" stroke="black" cx="87.74" cy="-18" rx="87.99" ry="18"/>
<text text-anchor="middle" x="87.74" y="-14.3" font-family="Times,serif" font-size="14.00">:core:component</text>
</g>
<!-- :core:ui&#45;&gt;:core:component -->
<g id="edge5" class="edge">
<title>:core:ui&#45;&gt;:core:component</title>
<path fill="none" stroke="red" stroke-width="2" d="M87.74,-71.7C87.74,-63.98 87.74,-54.71 87.74,-46.11"/>
<polygon fill="red" stroke="red" stroke-width="2" points="91.24,-46.1 87.74,-36.1 84.24,-46.1 91.24,-46.1"/>
</g>
<!-- :core:domain -->
<g id="node7" class="node">
<title>:core:domain</title>
<ellipse fill="none" stroke="black" cx="268.74" cy="-18" rx="70.69" ry="18"/>
<text text-anchor="middle" x="268.74" y="-14.3" font-family="Times,serif" font-size="14.00">:core:domain</text>
</g>
<!-- :core:ui&#45;&gt;:core:domain -->
<g id="edge6" class="edge">
<title>:core:ui&#45;&gt;:core:domain</title>
<path fill="none" stroke="black" d="M119.27,-76.81C147.63,-65.84 189.68,-49.58 221.96,-37.09"/>
<polygon fill="black" stroke="black" points="223.58,-40.22 231.64,-33.35 221.05,-33.69 223.58,-40.22"/>
</g>
<!-- :features:home:domain&#45;&gt;:core:domain -->
<g id="edge7" class="edge">
<title>:features:home:domain&#45;&gt;:core:domain</title>
<path fill="none" stroke="black" d="M268.74,-71.7C268.74,-63.98 268.74,-54.71 268.74,-46.11"/>
<polygon fill="black" stroke="black" points="272.24,-46.1 268.74,-36.1 265.24,-46.1 272.24,-46.1"/>
</g>
<!-- :core:data&#45;&gt;:core:domain -->
<g id="edge10" class="edge">
<title>:core:data&#45;&gt;:core:domain</title>
<path fill="none" stroke="black" d="M425.44,-75.83C394.83,-64.73 350.77,-48.75 317.15,-36.56"/>
<polygon fill="black" stroke="black" points="318.12,-33.19 307.53,-33.07 315.74,-39.77 318.12,-33.19"/>
</g>
<!-- :core:common -->
<g id="node9" class="node">
<title>:core:common</title>
<ellipse fill="none" stroke="black" cx="461.74" cy="-18" rx="75.29" ry="18"/>
<text text-anchor="middle" x="461.74" y="-14.3" font-family="Times,serif" font-size="14.00">:core:common</text>
</g>
<!-- :core:data&#45;&gt;:core:common -->
<g id="edge11" class="edge">
<title>:core:data&#45;&gt;:core:common</title>
<path fill="none" stroke="black" d="M461.74,-71.7C461.74,-63.98 461.74,-54.71 461.74,-46.11"/>
<polygon fill="black" stroke="black" points="465.24,-46.1 461.74,-36.1 458.24,-46.1 465.24,-46.1"/>
</g>
</g>
</svg>
