<?xml version="1.0" encoding="UTF-8" standalone="no"?>
<!DOCTYPE svg PUBLIC "-//W3C//DTD SVG 1.1//EN"
 "http://www.w3.org/Graphics/SVG/1.1/DTD/svg11.dtd">
<!-- Generated by graphviz version 2.43.0 (0)
 -->
<!-- Title: G Pages: 1 -->
<svg width="592pt" height="260pt"
 viewBox="0.00 0.00 592.43 260.00" xmlns="http://www.w3.org/2000/svg" xmlns:xlink="http://www.w3.org/1999/xlink">
<g id="graph0" class="graph" transform="scale(1 1) rotate(0) translate(4 256)">
<title>G</title>
<polygon fill="white" stroke="transparent" points="-4,4 -4,-256 588.43,-256 588.43,4 -4,4"/>
<!-- :features:home:data -->
<g id="node1" class="node">
<title>:features:home:data</title>
<ellipse fill="none" stroke="black" cx="310.64" cy="-234" rx="103.98" ry="18"/>
<text text-anchor="middle" x="310.64" y="-230.3" font-family="Times,serif" font-size="14.00">:features:home:data</text>
</g>
<!-- :features:home:domain -->
<g id="node2" class="node">
<title>:features:home:domain</title>
<ellipse fill="none" stroke="black" cx="117.64" cy="-162" rx="117.78" ry="18"/>
<text text-anchor="middle" x="117.64" y="-158.3" font-family="Times,serif" font-size="14.00">:features:home:domain</text>
</g>
<!-- :features:home:data&#45;&gt;:features:home:domain -->
<g id="edge1" class="edge">
<title>:features:home:data&#45;&gt;:features:home:domain</title>
<path fill="none" stroke="red" stroke-width="2" d="M267.81,-217.46C239.15,-207.07 201.23,-193.32 170.66,-182.23"/>
<polygon fill="red" stroke="red" stroke-width="2" points="171.61,-178.85 161.02,-178.73 169.23,-185.43 171.61,-178.85"/>
</g>
<!-- :core:data -->
<g id="node3" class="node">
<title>:core:data</title>
<ellipse fill="none" stroke="black" cx="310.64" cy="-162" rx="57.39" ry="18"/>
<text text-anchor="middle" x="310.64" y="-158.3" font-family="Times,serif" font-size="14.00">:core:data</text>
</g>
<!-- :features:home:data&#45;&gt;:core:data -->
<g id="edge2" class="edge">
<title>:features:home:data&#45;&gt;:core:data</title>
<path fill="none" stroke="black" d="M310.64,-215.7C310.64,-207.98 310.64,-198.71 310.64,-190.11"/>
<polygon fill="black" stroke="black" points="314.14,-190.1 310.64,-180.1 307.14,-190.1 314.14,-190.1"/>
</g>
<!-- :core:pagination -->
<g id="node4" class="node">
<title>:core:pagination</title>
<ellipse fill="none" stroke="black" cx="498.64" cy="-90" rx="85.59" ry="18"/>
<text text-anchor="middle" x="498.64" y="-86.3" font-family="Times,serif" font-size="14.00">:core:pagination</text>
</g>
<!-- :features:home:data&#45;&gt;:core:pagination -->
<g id="edge3" class="edge">
<title>:features:home:data&#45;&gt;:core:pagination</title>
<path fill="none" stroke="black" d="M332.94,-216.15C366.67,-190.68 430.72,-142.3 468.55,-113.73"/>
<polygon fill="black" stroke="black" points="470.79,-116.43 476.66,-107.61 466.57,-110.84 470.79,-116.43"/>
</g>
<!-- :core:domain -->
<g id="node5" class="node">
<title>:core:domain</title>
<ellipse fill="none" stroke="black" cx="117.64" cy="-90" rx="70.69" ry="18"/>
<text text-anchor="middle" x="117.64" y="-86.3" font-family="Times,serif" font-size="14.00">:core:domain</text>
</g>
<!-- :features:home:domain&#45;&gt;:core:domain -->
<g id="edge4" class="edge">
<title>:features:home:domain&#45;&gt;:core:domain</title>
<path fill="none" stroke="red" stroke-width="2" d="M117.64,-143.7C117.64,-135.98 117.64,-126.71 117.64,-118.11"/>
<polygon fill="red" stroke="red" stroke-width="2" points="121.14,-118.1 117.64,-108.1 114.14,-118.1 121.14,-118.1"/>
</g>
<!-- :core:data&#45;&gt;:core:domain -->
<g id="edge8" class="edge">
<title>:core:data&#45;&gt;:core:domain</title>
<path fill="none" stroke="black" d="M274.34,-147.83C243.73,-136.73 199.66,-120.75 166.05,-108.56"/>
<polygon fill="black" stroke="black" points="167.02,-105.19 156.43,-105.07 164.63,-111.77 167.02,-105.19"/>
</g>
<!-- :core:common -->
<g id="node6" class="node">
<title>:core:common</title>
<ellipse fill="none" stroke="black" cx="267.64" cy="-18" rx="75.29" ry="18"/>
<text text-anchor="middle" x="267.64" y="-14.3" font-family="Times,serif" font-size="14.00">:core:common</text>
</g>
<!-- :core:data&#45;&gt;:core:common -->
<g id="edge6" class="edge">
<title>:core:data&#45;&gt;:core:common</title>
<path fill="none" stroke="black" d="M278.25,-147.05C262.32,-138.33 244.66,-125.41 235.64,-108 225,-87.45 235.77,-62.55 247.61,-44.32"/>
<polygon fill="black" stroke="black" points="250.59,-46.17 253.41,-35.96 244.84,-42.18 250.59,-46.17"/>
</g>
<!-- :core:network -->
<g id="node7" class="node">
<title>:core:network</title>
<ellipse fill="none" stroke="black" cx="319.64" cy="-90" rx="74.99" ry="18"/>
<text text-anchor="middle" x="319.64" y="-86.3" font-family="Times,serif" font-size="14.00">:core:network</text>
</g>
<!-- :core:data&#45;&gt;:core:network -->
<g id="edge7" class="edge">
<title>:core:data&#45;&gt;:core:network</title>
<path fill="none" stroke="black" d="M312.86,-143.7C313.86,-135.98 315.05,-126.71 316.15,-118.11"/>
<polygon fill="black" stroke="black" points="319.64,-118.47 317.44,-108.1 312.69,-117.58 319.64,-118.47"/>
</g>
<!-- :core:pagination&#45;&gt;:core:common -->
<g id="edge10" class="edge">
<title>:core:pagination&#45;&gt;:core:common</title>
<path fill="none" stroke="black" d="M451.89,-74.83C414.34,-63.45 361.54,-47.45 322.08,-35.5"/>
<polygon fill="black" stroke="black" points="322.94,-32.1 312.35,-32.55 320.91,-38.8 322.94,-32.1"/>
</g>
<!-- :core:domain&#45;&gt;:core:common -->
<g id="edge5" class="edge">
<title>:core:domain&#45;&gt;:core:common</title>
<path fill="none" stroke="red" stroke-width="2" d="M150.19,-73.81C172.32,-63.48 201.81,-49.72 225.71,-38.57"/>
<polygon fill="red" stroke="red" stroke-width="2" points="227.31,-41.68 234.9,-34.28 224.35,-35.34 227.31,-41.68"/>
</g>
<!-- :core:network&#45;&gt;:core:common -->
<g id="edge9" class="edge">
<title>:core:network&#45;&gt;:core:common</title>
<path fill="none" stroke="black" d="M307.05,-72.05C300.79,-63.63 293.1,-53.28 286.19,-43.97"/>
<polygon fill="black" stroke="black" points="288.88,-41.73 280.11,-35.79 283.27,-45.9 288.88,-41.73"/>
</g>
</g>
</svg>
