<?xml version="1.0" encoding="UTF-8" standalone="no"?>
<!DOCTYPE svg PUBLIC "-//W3C//DTD SVG 1.1//EN"
 "http://www.w3.org/Graphics/SVG/1.1/DTD/svg11.dtd">
<!-- Generated by graphviz version 2.43.0 (0)
 -->
<!-- Title: G Pages: 1 -->
<svg width="394pt" height="260pt"
 viewBox="0.00 0.00 393.92 260.00" xmlns="http://www.w3.org/2000/svg" xmlns:xlink="http://www.w3.org/1999/xlink">
<g id="graph0" class="graph" transform="scale(1 1) rotate(0) translate(4 256)">
<title>G</title>
<polygon fill="white" stroke="transparent" points="-4,4 -4,-256 389.92,-256 389.92,4 -4,4"/>
<!-- :features:detail:data -->
<g id="node1" class="node">
<title>:features:detail:data</title>
<ellipse fill="none" stroke="black" cx="170.63" cy="-234" rx="104.78" ry="18"/>
<text text-anchor="middle" x="170.63" y="-230.3" font-family="Times,serif" font-size="14.00">:features:detail:data</text>
</g>
<!-- :core:data -->
<g id="node2" class="node">
<title>:core:data</title>
<ellipse fill="none" stroke="black" cx="74.63" cy="-162" rx="57.39" ry="18"/>
<text text-anchor="middle" x="74.63" y="-158.3" font-family="Times,serif" font-size="14.00">:core:data</text>
</g>
<!-- :features:detail:data&#45;&gt;:core:data -->
<g id="edge1" class="edge">
<title>:features:detail:data&#45;&gt;:core:data</title>
<path fill="none" stroke="red" stroke-width="2" d="M147.88,-216.41C134.93,-206.97 118.56,-195.03 104.57,-184.83"/>
<polygon fill="red" stroke="red" stroke-width="2" points="106.37,-181.81 96.23,-178.75 102.25,-187.47 106.37,-181.81"/>
</g>
<!-- :features:detail:domain -->
<g id="node3" class="node">
<title>:features:detail:domain</title>
<ellipse fill="none" stroke="black" cx="267.63" cy="-162" rx="118.08" ry="18"/>
<text text-anchor="middle" x="267.63" y="-158.3" font-family="Times,serif" font-size="14.00">:features:detail:domain</text>
</g>
<!-- :features:detail:data&#45;&gt;:features:detail:domain -->
<g id="edge2" class="edge">
<title>:features:detail:data&#45;&gt;:features:detail:domain</title>
<path fill="none" stroke="black" d="M193.62,-216.41C206.33,-207.24 222.31,-195.7 236.17,-185.71"/>
<polygon fill="black" stroke="black" points="238.41,-188.4 244.47,-179.71 234.32,-182.73 238.41,-188.4"/>
</g>
<!-- :core:common -->
<g id="node4" class="node">
<title>:core:common</title>
<ellipse fill="none" stroke="black" cx="89.63" cy="-18" rx="75.29" ry="18"/>
<text text-anchor="middle" x="89.63" y="-14.3" font-family="Times,serif" font-size="14.00">:core:common</text>
</g>
<!-- :core:data&#45;&gt;:core:common -->
<g id="edge3" class="edge">
<title>:core:data&#45;&gt;:core:common</title>
<path fill="none" stroke="black" d="M44.76,-146.44C30.09,-137.55 13.84,-124.67 5.63,-108 -1.44,-93.65 -2.09,-86.01 5.63,-72 13.56,-57.63 27.19,-46.62 41.2,-38.46"/>
<polygon fill="black" stroke="black" points="43.27,-41.32 50.41,-33.5 39.95,-35.16 43.27,-41.32"/>
</g>
<!-- :core:network -->
<g id="node5" class="node">
<title>:core:network</title>
<ellipse fill="none" stroke="black" cx="89.63" cy="-90" rx="74.99" ry="18"/>
<text text-anchor="middle" x="89.63" y="-86.3" font-family="Times,serif" font-size="14.00">:core:network</text>
</g>
<!-- :core:data&#45;&gt;:core:network -->
<g id="edge4" class="edge">
<title>:core:data&#45;&gt;:core:network</title>
<path fill="none" stroke="red" stroke-width="2" d="M78.34,-143.7C79.99,-135.98 81.98,-126.71 83.82,-118.11"/>
<polygon fill="red" stroke="red" stroke-width="2" points="87.29,-118.62 85.97,-108.1 80.45,-117.15 87.29,-118.62"/>
</g>
<!-- :core:domain -->
<g id="node6" class="node">
<title>:core:domain</title>
<ellipse fill="none" stroke="black" cx="253.63" cy="-90" rx="70.69" ry="18"/>
<text text-anchor="middle" x="253.63" y="-86.3" font-family="Times,serif" font-size="14.00">:core:domain</text>
</g>
<!-- :core:data&#45;&gt;:core:domain -->
<g id="edge5" class="edge">
<title>:core:data&#45;&gt;:core:domain</title>
<path fill="none" stroke="black" d="M109.14,-147.5C137.01,-136.61 176.49,-121.17 207.14,-109.18"/>
<polygon fill="black" stroke="black" points="208.72,-112.32 216.76,-105.42 206.17,-105.8 208.72,-112.32"/>
</g>
<!-- :features:detail:domain&#45;&gt;:core:domain -->
<g id="edge8" class="edge">
<title>:features:detail:domain&#45;&gt;:core:domain</title>
<path fill="none" stroke="black" d="M264.17,-143.7C262.63,-135.98 260.77,-126.71 259.05,-118.11"/>
<polygon fill="black" stroke="black" points="262.45,-117.22 257.05,-108.1 255.58,-118.6 262.45,-117.22"/>
</g>
<!-- :core:network&#45;&gt;:core:common -->
<g id="edge6" class="edge">
<title>:core:network&#45;&gt;:core:common</title>
<path fill="none" stroke="red" stroke-width="2" d="M89.63,-71.7C89.63,-63.98 89.63,-54.71 89.63,-46.11"/>
<polygon fill="red" stroke="red" stroke-width="2" points="93.13,-46.1 89.63,-36.1 86.13,-46.1 93.13,-46.1"/>
</g>
<!-- :core:domain&#45;&gt;:core:common -->
<g id="edge7" class="edge">
<title>:core:domain&#45;&gt;:core:common</title>
<path fill="none" stroke="black" d="M218.85,-74.15C194.15,-63.61 160.77,-49.36 134.13,-37.99"/>
<polygon fill="black" stroke="black" points="135.22,-34.65 124.64,-33.94 132.47,-41.09 135.22,-34.65"/>
</g>
</g>
</svg>
