<?xml version="1.0" encoding="UTF-8" standalone="no"?>
<!DOCTYPE svg PUBLIC "-//W3C//DTD SVG 1.1//EN"
 "http://www.w3.org/Graphics/SVG/1.1/DTD/svg11.dtd">
<!-- Generated by graphviz version 2.43.0 (0)
 -->
<!-- Title: G Pages: 1 -->
<svg width="703pt" height="332pt"
 viewBox="0.00 0.00 703.03 332.00" xmlns="http://www.w3.org/2000/svg" xmlns:xlink="http://www.w3.org/1999/xlink">
<g id="graph0" class="graph" transform="scale(1 1) rotate(0) translate(4 328)">
<title>G</title>
<polygon fill="white" stroke="transparent" points="-4,4 -4,-328 699.03,-328 699.03,4 -4,4"/>
<!-- :navigation -->
<g id="node1" class="node">
<title>:navigation</title>
<ellipse fill="none" stroke="black" cx="188.74" cy="-306" rx="62.29" ry="18"/>
<text text-anchor="middle" x="188.74" y="-302.3" font-family="Times,serif" font-size="14.00">:navigation</text>
</g>
<!-- :core:component -->
<g id="node2" class="node">
<title>:core:component</title>
<ellipse fill="none" stroke="black" cx="87.74" cy="-90" rx="87.99" ry="18"/>
<text text-anchor="middle" x="87.74" y="-86.3" font-family="Times,serif" font-size="14.00">:core:component</text>
</g>
<!-- :navigation&#45;&gt;:core:component -->
<g id="edge1" class="edge">
<title>:navigation&#45;&gt;:core:component</title>
<path fill="none" stroke="black" d="M144.18,-293.34C123.19,-285.36 100.09,-272.42 87.74,-252 62.82,-210.77 71.45,-152.09 79.76,-118.13"/>
<polygon fill="black" stroke="black" points="83.26,-118.59 82.4,-108.03 76.48,-116.82 83.26,-118.59"/>
</g>
<!-- :features:home:ui -->
<g id="node3" class="node">
<title>:features:home:ui</title>
<ellipse fill="none" stroke="black" cx="188.74" cy="-234" rx="92.08" ry="18"/>
<text text-anchor="middle" x="188.74" y="-230.3" font-family="Times,serif" font-size="14.00">:features:home:ui</text>
</g>
<!-- :navigation&#45;&gt;:features:home:ui -->
<g id="edge2" class="edge">
<title>:navigation&#45;&gt;:features:home:ui</title>
<path fill="none" stroke="red" stroke-width="2" d="M188.74,-287.7C188.74,-279.98 188.74,-270.71 188.74,-262.11"/>
<polygon fill="red" stroke="red" stroke-width="2" points="192.24,-262.1 188.74,-252.1 185.24,-262.1 192.24,-262.1"/>
</g>
<!-- :features:detail:ui -->
<g id="node4" class="node">
<title>:features:detail:ui</title>
<ellipse fill="none" stroke="black" cx="391.74" cy="-234" rx="92.88" ry="18"/>
<text text-anchor="middle" x="391.74" y="-230.3" font-family="Times,serif" font-size="14.00">:features:detail:ui</text>
</g>
<!-- :navigation&#45;&gt;:features:detail:ui -->
<g id="edge3" class="edge">
<title>:navigation&#45;&gt;:features:detail:ui</title>
<path fill="none" stroke="black" d="M227.4,-291.67C258.95,-280.79 303.84,-265.31 338.74,-253.28"/>
<polygon fill="black" stroke="black" points="339.99,-256.55 348.3,-249.98 337.7,-249.93 339.99,-256.55"/>
</g>
<!-- :core:ui -->
<g id="node5" class="node">
<title>:core:ui</title>
<ellipse fill="none" stroke="black" cx="141.74" cy="-162" rx="45.49" ry="18"/>
<text text-anchor="middle" x="141.74" y="-158.3" font-family="Times,serif" font-size="14.00">:core:ui</text>
</g>
<!-- :features:home:ui&#45;&gt;:core:ui -->
<g id="edge4" class="edge">
<title>:features:home:ui&#45;&gt;:core:ui</title>
<path fill="none" stroke="red" stroke-width="2" d="M177.36,-216.05C171.76,-207.71 164.9,-197.49 158.7,-188.25"/>
<polygon fill="red" stroke="red" stroke-width="2" points="161.49,-186.14 153.01,-179.79 155.68,-190.04 161.49,-186.14"/>
</g>
<!-- :features:home:domain -->
<g id="node6" class="node">
<title>:features:home:domain</title>
<ellipse fill="none" stroke="black" cx="322.74" cy="-162" rx="117.78" ry="18"/>
<text text-anchor="middle" x="322.74" y="-158.3" font-family="Times,serif" font-size="14.00">:features:home:domain</text>
</g>
<!-- :features:home:ui&#45;&gt;:features:home:domain -->
<g id="edge5" class="edge">
<title>:features:home:ui&#45;&gt;:features:home:domain</title>
<path fill="none" stroke="black" d="M219.48,-216.94C238.11,-207.21 262.09,-194.68 282.25,-184.15"/>
<polygon fill="black" stroke="black" points="283.97,-187.2 291.21,-179.47 280.73,-181 283.97,-187.2"/>
</g>
<!-- :features:detail:ui&#45;&gt;:core:ui -->
<g id="edge11" class="edge">
<title>:features:detail:ui&#45;&gt;:core:ui</title>
<path fill="none" stroke="black" d="M338.34,-219.19C298.83,-208.82 243.78,-194.05 195.74,-180 192.43,-179.03 189.02,-178.01 185.59,-176.97"/>
<polygon fill="black" stroke="black" points="186.54,-173.6 175.96,-174 184.49,-180.29 186.54,-173.6"/>
</g>
<!-- :features:detail:domain -->
<g id="node9" class="node">
<title>:features:detail:domain</title>
<ellipse fill="none" stroke="black" cx="576.74" cy="-162" rx="118.08" ry="18"/>
<text text-anchor="middle" x="576.74" y="-158.3" font-family="Times,serif" font-size="14.00">:features:detail:domain</text>
</g>
<!-- :features:detail:ui&#45;&gt;:features:detail:domain -->
<g id="edge12" class="edge">
<title>:features:detail:ui&#45;&gt;:features:detail:domain</title>
<path fill="none" stroke="black" d="M432.34,-217.64C459.58,-207.33 495.69,-193.67 524.98,-182.58"/>
<polygon fill="black" stroke="black" points="526.52,-185.75 534.63,-178.93 524.04,-179.2 526.52,-185.75"/>
</g>
<!-- :core:ui&#45;&gt;:core:component -->
<g id="edge6" class="edge">
<title>:core:ui&#45;&gt;:core:component</title>
<path fill="none" stroke="black" d="M128.94,-144.41C122.38,-135.91 114.26,-125.37 106.96,-115.91"/>
<polygon fill="black" stroke="black" points="109.7,-113.74 100.82,-107.96 104.16,-118.01 109.7,-113.74"/>
</g>
<!-- :core:common -->
<g id="node7" class="node">
<title>:core:common</title>
<ellipse fill="none" stroke="black" cx="262.74" cy="-18" rx="75.29" ry="18"/>
<text text-anchor="middle" x="262.74" y="-14.3" font-family="Times,serif" font-size="14.00">:core:common</text>
</g>
<!-- :core:ui&#45;&gt;:core:common -->
<g id="edge7" class="edge">
<title>:core:ui&#45;&gt;:core:common</title>
<path fill="none" stroke="black" d="M155.62,-144.71C176.73,-119.94 217.05,-72.62 241.75,-43.64"/>
<polygon fill="black" stroke="black" points="244.45,-45.86 248.27,-35.98 239.12,-41.32 244.45,-45.86"/>
</g>
<!-- :core:domain -->
<g id="node8" class="node">
<title>:core:domain</title>
<ellipse fill="none" stroke="black" cx="317.74" cy="-90" rx="70.69" ry="18"/>
<text text-anchor="middle" x="317.74" y="-86.3" font-family="Times,serif" font-size="14.00">:core:domain</text>
</g>
<!-- :core:ui&#45;&gt;:core:domain -->
<g id="edge8" class="edge">
<title>:core:ui&#45;&gt;:core:domain</title>
<path fill="none" stroke="red" stroke-width="2" d="M172.8,-148.65C200.26,-137.73 240.67,-121.65 271.86,-109.25"/>
<polygon fill="red" stroke="red" stroke-width="2" points="273.21,-112.48 281.21,-105.53 270.63,-105.97 273.21,-112.48"/>
</g>
<!-- :features:home:domain&#45;&gt;:core:domain -->
<g id="edge10" class="edge">
<title>:features:home:domain&#45;&gt;:core:domain</title>
<path fill="none" stroke="black" d="M321.51,-143.7C320.96,-135.98 320.29,-126.71 319.68,-118.11"/>
<polygon fill="black" stroke="black" points="323.17,-117.83 318.96,-108.1 316.19,-118.33 323.17,-117.83"/>
</g>
<!-- :core:domain&#45;&gt;:core:common -->
<g id="edge9" class="edge">
<title>:core:domain&#45;&gt;:core:common</title>
<path fill="none" stroke="red" stroke-width="2" d="M304.43,-72.05C297.74,-63.54 289.51,-53.07 282.13,-43.68"/>
<polygon fill="red" stroke="red" stroke-width="2" points="284.86,-41.49 275.93,-35.79 279.36,-45.81 284.86,-41.49"/>
</g>
<!-- :features:detail:domain&#45;&gt;:core:domain -->
<g id="edge13" class="edge">
<title>:features:detail:domain&#45;&gt;:core:domain</title>
<path fill="none" stroke="black" d="M521.5,-146.07C478.22,-134.37 418.23,-118.16 374.55,-106.35"/>
<polygon fill="black" stroke="black" points="375.23,-102.91 364.66,-103.68 373.4,-109.67 375.23,-102.91"/>
</g>
</g>
</svg>
