<?xml version="1.0" encoding="UTF-8" standalone="no"?>
<!DOCTYPE svg PUBLIC "-//W3C//DTD SVG 1.1//EN"
 "http://www.w3.org/Graphics/SVG/1.1/DTD/svg11.dtd">
<!-- Generated by graphviz version 2.43.0 (0)
 -->
<!-- Title: G Pages: 1 -->
<svg width="470pt" height="260pt"
 viewBox="0.00 0.00 470.03 260.00" xmlns="http://www.w3.org/2000/svg" xmlns:xlink="http://www.w3.org/1999/xlink">
<g id="graph0" class="graph" transform="scale(1 1) rotate(0) translate(4 256)">
<title>G</title>
<polygon fill="white" stroke="transparent" points="-4,4 -4,-256 466.03,-256 466.03,4 -4,4"/>
<!-- :features:detail:ui -->
<g id="node1" class="node">
<title>:features:detail:ui</title>
<ellipse fill="none" stroke="black" cx="252.74" cy="-234" rx="92.88" ry="18"/>
<text text-anchor="middle" x="252.74" y="-230.3" font-family="Times,serif" font-size="14.00">:features:detail:ui</text>
</g>
<!-- :core:ui -->
<g id="node2" class="node">
<title>:core:ui</title>
<ellipse fill="none" stroke="black" cx="161.74" cy="-162" rx="45.49" ry="18"/>
<text text-anchor="middle" x="161.74" y="-158.3" font-family="Times,serif" font-size="14.00">:core:ui</text>
</g>
<!-- :features:detail:ui&#45;&gt;:core:ui -->
<g id="edge1" class="edge">
<title>:features:detail:ui&#45;&gt;:core:ui</title>
<path fill="none" stroke="red" stroke-width="2" d="M231.18,-216.41C218.73,-206.84 202.94,-194.69 189.56,-184.4"/>
<polygon fill="red" stroke="red" stroke-width="2" points="191.66,-181.6 181.6,-178.27 187.39,-187.15 191.66,-181.6"/>
</g>
<!-- :features:detail:domain -->
<g id="node3" class="node">
<title>:features:detail:domain</title>
<ellipse fill="none" stroke="black" cx="343.74" cy="-162" rx="118.08" ry="18"/>
<text text-anchor="middle" x="343.74" y="-158.3" font-family="Times,serif" font-size="14.00">:features:detail:domain</text>
</g>
<!-- :features:detail:ui&#45;&gt;:features:detail:domain -->
<g id="edge2" class="edge">
<title>:features:detail:ui&#45;&gt;:features:detail:domain</title>
<path fill="none" stroke="black" d="M274.31,-216.41C286.12,-207.32 300.94,-195.92 313.86,-185.99"/>
<polygon fill="black" stroke="black" points="316.22,-188.58 322.02,-179.71 311.96,-183.04 316.22,-188.58"/>
</g>
<!-- :core:component -->
<g id="node4" class="node">
<title>:core:component</title>
<ellipse fill="none" stroke="black" cx="87.74" cy="-90" rx="87.99" ry="18"/>
<text text-anchor="middle" x="87.74" y="-86.3" font-family="Times,serif" font-size="14.00">:core:component</text>
</g>
<!-- :core:ui&#45;&gt;:core:component -->
<g id="edge3" class="edge">
<title>:core:ui&#45;&gt;:core:component</title>
<path fill="none" stroke="black" d="M144.95,-145.12C135.48,-136.16 123.46,-124.79 112.89,-114.79"/>
<polygon fill="black" stroke="black" points="115.17,-112.13 105.5,-107.8 110.36,-117.21 115.17,-112.13"/>
</g>
<!-- :core:common -->
<g id="node5" class="node">
<title>:core:common</title>
<ellipse fill="none" stroke="black" cx="252.74" cy="-18" rx="75.29" ry="18"/>
<text text-anchor="middle" x="252.74" y="-14.3" font-family="Times,serif" font-size="14.00">:core:common</text>
</g>
<!-- :core:ui&#45;&gt;:core:common -->
<g id="edge4" class="edge">
<title>:core:ui&#45;&gt;:core:common</title>
<path fill="none" stroke="black" d="M172.36,-144.43C188.1,-119.88 217.75,-73.6 236.31,-44.65"/>
<polygon fill="black" stroke="black" points="239.46,-46.21 241.91,-35.9 233.57,-42.43 239.46,-46.21"/>
</g>
<!-- :core:domain -->
<g id="node6" class="node">
<title>:core:domain</title>
<ellipse fill="none" stroke="black" cx="302.74" cy="-90" rx="70.69" ry="18"/>
<text text-anchor="middle" x="302.74" y="-86.3" font-family="Times,serif" font-size="14.00">:core:domain</text>
</g>
<!-- :core:ui&#45;&gt;:core:domain -->
<g id="edge5" class="edge">
<title>:core:ui&#45;&gt;:core:domain</title>
<path fill="none" stroke="red" stroke-width="2" d="M188.93,-147.5C209.84,-137.12 239.05,-122.62 262.65,-110.91"/>
<polygon fill="red" stroke="red" stroke-width="2" points="264.31,-113.99 271.71,-106.41 261.2,-107.72 264.31,-113.99"/>
</g>
<!-- :features:detail:domain&#45;&gt;:core:domain -->
<g id="edge7" class="edge">
<title>:features:detail:domain&#45;&gt;:core:domain</title>
<path fill="none" stroke="black" d="M333.82,-144.05C329.05,-135.92 323.24,-126 317.94,-116.94"/>
<polygon fill="black" stroke="black" points="320.93,-115.14 312.86,-108.28 314.89,-118.67 320.93,-115.14"/>
</g>
<!-- :core:domain&#45;&gt;:core:common -->
<g id="edge6" class="edge">
<title>:core:domain&#45;&gt;:core:common</title>
<path fill="none" stroke="red" stroke-width="2" d="M290.64,-72.05C284.62,-63.63 277.23,-53.28 270.58,-43.97"/>
<polygon fill="red" stroke="red" stroke-width="2" points="273.39,-41.89 264.73,-35.79 267.7,-45.96 273.39,-41.89"/>
</g>
</g>
</svg>
