<?xml version="1.0" encoding="UTF-8" standalone="no"?>
<!DOCTYPE svg PUBLIC "-//W3C//DTD SVG 1.1//EN"
 "http://www.w3.org/Graphics/SVG/1.1/DTD/svg11.dtd">
<!-- Generated by graphviz version 2.43.0 (0)
 -->
<!-- Title: G Pages: 1 -->
<svg width="617pt" height="404pt"
 viewBox="0.00 0.00 617.14 404.00" xmlns="http://www.w3.org/2000/svg" xmlns:xlink="http://www.w3.org/1999/xlink">
<g id="graph0" class="graph" transform="scale(1 1) rotate(0) translate(4 400)">
<title>G</title>
<polygon fill="white" stroke="transparent" points="-4,4 -4,-400 613.14,-400 613.14,4 -4,4"/>
<!-- :app -->
<g id="node1" class="node">
<title>:app</title>
<ellipse fill="none" stroke="black" cx="110.74" cy="-378" rx="30.59" ry="18"/>
<text text-anchor="middle" x="110.74" y="-374.3" font-family="Times,serif" font-size="14.00">:app</text>
</g>
<!-- :core:component -->
<g id="node2" class="node">
<title>:core:component</title>
<ellipse fill="none" stroke="black" cx="87.74" cy="-90" rx="87.99" ry="18"/>
<text text-anchor="middle" x="87.74" y="-86.3" font-family="Times,serif" font-size="14.00">:core:component</text>
</g>
<!-- :app&#45;&gt;:core:component -->
<g id="edge1" class="edge">
<title>:app&#45;&gt;:core:component</title>
<path fill="none" stroke="black" d="M103.43,-360.44C93.47,-336.9 76.16,-292.14 69.74,-252 62.17,-204.6 61.92,-191.36 69.74,-144 71.18,-135.28 73.87,-126.06 76.74,-117.8"/>
<polygon fill="black" stroke="black" points="80.07,-118.89 80.26,-108.3 73.51,-116.46 80.07,-118.89"/>
</g>
<!-- :navigation -->
<g id="node3" class="node">
<title>:navigation</title>
<ellipse fill="none" stroke="black" cx="170.74" cy="-306" rx="62.29" ry="18"/>
<text text-anchor="middle" x="170.74" y="-302.3" font-family="Times,serif" font-size="14.00">:navigation</text>
</g>
<!-- :app&#45;&gt;:navigation -->
<g id="edge2" class="edge">
<title>:app&#45;&gt;:navigation</title>
<path fill="none" stroke="red" stroke-width="2" d="M124.06,-361.46C131.58,-352.69 141.15,-341.53 149.66,-331.6"/>
<polygon fill="red" stroke="red" stroke-width="2" points="152.35,-333.83 156.2,-323.96 147.04,-329.28 152.35,-333.83"/>
</g>
<!-- :features:home:ui -->
<g id="node4" class="node">
<title>:features:home:ui</title>
<ellipse fill="none" stroke="black" cx="170.74" cy="-234" rx="92.08" ry="18"/>
<text text-anchor="middle" x="170.74" y="-230.3" font-family="Times,serif" font-size="14.00">:features:home:ui</text>
</g>
<!-- :navigation&#45;&gt;:features:home:ui -->
<g id="edge3" class="edge">
<title>:navigation&#45;&gt;:features:home:ui</title>
<path fill="none" stroke="black" d="M170.74,-287.7C170.74,-279.98 170.74,-270.71 170.74,-262.11"/>
<polygon fill="black" stroke="black" points="174.24,-262.1 170.74,-252.1 167.24,-262.1 174.24,-262.1"/>
</g>
<!-- :features:home:data -->
<g id="node5" class="node">
<title>:features:home:data</title>
<ellipse fill="none" stroke="black" cx="384.74" cy="-234" rx="103.98" ry="18"/>
<text text-anchor="middle" x="384.74" y="-230.3" font-family="Times,serif" font-size="14.00">:features:home:data</text>
</g>
<!-- :navigation&#45;&gt;:features:home:data -->
<g id="edge4" class="edge">
<title>:navigation&#45;&gt;:features:home:data</title>
<path fill="none" stroke="red" stroke-width="2" d="M210.49,-292C243.67,-281.15 291.35,-265.55 328.45,-253.41"/>
<polygon fill="red" stroke="red" stroke-width="2" points="329.71,-256.68 338.13,-250.25 327.53,-250.03 329.71,-256.68"/>
</g>
<!-- :core:ui -->
<g id="node6" class="node">
<title>:core:ui</title>
<ellipse fill="none" stroke="black" cx="123.74" cy="-162" rx="45.49" ry="18"/>
<text text-anchor="middle" x="123.74" y="-158.3" font-family="Times,serif" font-size="14.00">:core:ui</text>
</g>
<!-- :features:home:ui&#45;&gt;:core:ui -->
<g id="edge5" class="edge">
<title>:features:home:ui&#45;&gt;:core:ui</title>
<path fill="none" stroke="black" d="M159.36,-216.05C153.76,-207.71 146.9,-197.49 140.7,-188.25"/>
<polygon fill="black" stroke="black" points="143.49,-186.14 135.01,-179.79 137.68,-190.04 143.49,-186.14"/>
</g>
<!-- :features:home:domain -->
<g id="node7" class="node">
<title>:features:home:domain</title>
<ellipse fill="none" stroke="black" cx="304.74" cy="-162" rx="117.78" ry="18"/>
<text text-anchor="middle" x="304.74" y="-158.3" font-family="Times,serif" font-size="14.00">:features:home:domain</text>
</g>
<!-- :features:home:ui&#45;&gt;:features:home:domain -->
<g id="edge6" class="edge">
<title>:features:home:ui&#45;&gt;:features:home:domain</title>
<path fill="none" stroke="black" d="M201.48,-216.94C220.11,-207.21 244.09,-194.68 264.25,-184.15"/>
<polygon fill="black" stroke="black" points="265.97,-187.2 273.21,-179.47 262.73,-181 265.97,-187.2"/>
</g>
<!-- :features:home:data&#45;&gt;:features:home:domain -->
<g id="edge10" class="edge">
<title>:features:home:data&#45;&gt;:features:home:domain</title>
<path fill="none" stroke="black" d="M365.38,-216.05C355.26,-207.2 342.71,-196.22 331.66,-186.55"/>
<polygon fill="black" stroke="black" points="333.76,-183.74 323.93,-179.79 329.15,-189.01 333.76,-183.74"/>
</g>
<!-- :core:data -->
<g id="node9" class="node">
<title>:core:data</title>
<ellipse fill="none" stroke="black" cx="497.74" cy="-162" rx="57.39" ry="18"/>
<text text-anchor="middle" x="497.74" y="-158.3" font-family="Times,serif" font-size="14.00">:core:data</text>
</g>
<!-- :features:home:data&#45;&gt;:core:data -->
<g id="edge11" class="edge">
<title>:features:home:data&#45;&gt;:core:data</title>
<path fill="none" stroke="red" stroke-width="2" d="M411.24,-216.59C427.12,-206.75 447.47,-194.14 464.44,-183.63"/>
<polygon fill="red" stroke="red" stroke-width="2" points="466.3,-186.59 472.96,-178.35 462.62,-180.64 466.3,-186.59"/>
</g>
<!-- :core:ui&#45;&gt;:core:component -->
<g id="edge7" class="edge">
<title>:core:ui&#45;&gt;:core:component</title>
<path fill="none" stroke="black" d="M115.03,-144.05C110.89,-136.01 105.85,-126.2 101.23,-117.23"/>
<polygon fill="black" stroke="black" points="104.31,-115.57 96.63,-108.28 98.09,-118.77 104.31,-115.57"/>
</g>
<!-- :core:domain -->
<g id="node8" class="node">
<title>:core:domain</title>
<ellipse fill="none" stroke="black" cx="304.74" cy="-90" rx="70.69" ry="18"/>
<text text-anchor="middle" x="304.74" y="-86.3" font-family="Times,serif" font-size="14.00">:core:domain</text>
</g>
<!-- :core:ui&#45;&gt;:core:domain -->
<g id="edge8" class="edge">
<title>:core:ui&#45;&gt;:core:domain</title>
<path fill="none" stroke="black" d="M155.27,-148.81C183.63,-137.84 225.68,-121.58 257.96,-109.09"/>
<polygon fill="black" stroke="black" points="259.58,-112.22 267.64,-105.35 257.05,-105.69 259.58,-112.22"/>
</g>
<!-- :features:home:domain&#45;&gt;:core:domain -->
<g id="edge9" class="edge">
<title>:features:home:domain&#45;&gt;:core:domain</title>
<path fill="none" stroke="black" d="M304.74,-143.7C304.74,-135.98 304.74,-126.71 304.74,-118.11"/>
<polygon fill="black" stroke="black" points="308.24,-118.1 304.74,-108.1 301.24,-118.1 308.24,-118.1"/>
</g>
<!-- :core:data&#45;&gt;:core:domain -->
<g id="edge13" class="edge">
<title>:core:data&#45;&gt;:core:domain</title>
<path fill="none" stroke="black" d="M461.44,-147.83C430.83,-136.73 386.77,-120.75 353.15,-108.56"/>
<polygon fill="black" stroke="black" points="354.12,-105.19 343.53,-105.07 351.74,-111.77 354.12,-105.19"/>
</g>
<!-- :core:network -->
<g id="node10" class="node">
<title>:core:network</title>
<ellipse fill="none" stroke="black" cx="482.74" cy="-90" rx="74.99" ry="18"/>
<text text-anchor="middle" x="482.74" y="-86.3" font-family="Times,serif" font-size="14.00">:core:network</text>
</g>
<!-- :core:data&#45;&gt;:core:network -->
<g id="edge12" class="edge">
<title>:core:data&#45;&gt;:core:network</title>
<path fill="none" stroke="red" stroke-width="2" d="M494.03,-143.7C492.38,-135.98 490.39,-126.71 488.55,-118.11"/>
<polygon fill="red" stroke="red" stroke-width="2" points="491.93,-117.15 486.41,-108.1 485.08,-118.62 491.93,-117.15"/>
</g>
<!-- :core:common -->
<g id="node11" class="node">
<title>:core:common</title>
<ellipse fill="none" stroke="black" cx="533.74" cy="-18" rx="75.29" ry="18"/>
<text text-anchor="middle" x="533.74" y="-14.3" font-family="Times,serif" font-size="14.00">:core:common</text>
</g>
<!-- :core:data&#45;&gt;:core:common -->
<g id="edge14" class="edge">
<title>:core:data&#45;&gt;:core:common</title>
<path fill="none" stroke="black" d="M527.61,-146.44C542.28,-137.55 558.53,-124.67 566.74,-108 577.01,-87.17 565.97,-62.3 553.97,-44.15"/>
<polygon fill="black" stroke="black" points="556.72,-41.98 548.09,-35.83 551,-46.02 556.72,-41.98"/>
</g>
<!-- :core:network&#45;&gt;:core:common -->
<g id="edge15" class="edge">
<title>:core:network&#45;&gt;:core:common</title>
<path fill="none" stroke="red" stroke-width="2" d="M495.09,-72.05C501.23,-63.63 508.77,-53.28 515.55,-43.97"/>
<polygon fill="red" stroke="red" stroke-width="2" points="518.45,-45.93 521.51,-35.79 512.79,-41.81 518.45,-45.93"/>
</g>
</g>
</svg>
