<?xml version="1.0" encoding="UTF-8" standalone="no"?>
<!DOCTYPE svg PUBLIC "-//W3C//DTD SVG 1.1//EN"
 "http://www.w3.org/Graphics/SVG/1.1/DTD/svg11.dtd">
<!-- Generated by graphviz version 2.43.0 (0)
 -->
<!-- Title: G Pages: 1 -->
<svg width="382pt" height="260pt"
 viewBox="0.00 0.00 381.59 260.00" xmlns="http://www.w3.org/2000/svg" xmlns:xlink="http://www.w3.org/1999/xlink">
<g id="graph0" class="graph" transform="scale(1 1) rotate(0) translate(4 256)">
<title>G</title>
<polygon fill="white" stroke="transparent" points="-4,4 -4,-256 377.59,-256 377.59,4 -4,4"/>
<!-- :features:template:ui -->
<g id="node1" class="node">
<title>:features:template:ui</title>
<ellipse fill="none" stroke="black" cx="203.74" cy="-234" rx="108.58" ry="18"/>
<text text-anchor="middle" x="203.74" y="-230.3" font-family="Times,serif" font-size="14.00">:features:template:ui</text>
</g>
<!-- :core:ui -->
<g id="node2" class="node">
<title>:core:ui</title>
<ellipse fill="none" stroke="black" cx="203.74" cy="-162" rx="45.49" ry="18"/>
<text text-anchor="middle" x="203.74" y="-158.3" font-family="Times,serif" font-size="14.00">:core:ui</text>
</g>
<!-- :features:template:ui&#45;&gt;:core:ui -->
<g id="edge1" class="edge">
<title>:features:template:ui&#45;&gt;:core:ui</title>
<path fill="none" stroke="red" stroke-width="2" d="M203.74,-215.7C203.74,-207.98 203.74,-198.71 203.74,-190.11"/>
<polygon fill="red" stroke="red" stroke-width="2" points="207.24,-190.1 203.74,-180.1 200.24,-190.1 207.24,-190.1"/>
</g>
<!-- :core:component -->
<g id="node3" class="node">
<title>:core:component</title>
<ellipse fill="none" stroke="black" cx="87.74" cy="-90" rx="87.99" ry="18"/>
<text text-anchor="middle" x="87.74" y="-86.3" font-family="Times,serif" font-size="14.00">:core:component</text>
</g>
<!-- :core:ui&#45;&gt;:core:component -->
<g id="edge2" class="edge">
<title>:core:ui&#45;&gt;:core:component</title>
<path fill="none" stroke="black" d="M179.71,-146.5C163.4,-136.65 141.55,-123.47 123.25,-112.43"/>
<polygon fill="black" stroke="black" points="124.96,-109.37 114.58,-107.2 121.34,-115.36 124.96,-109.37"/>
</g>
<!-- :core:common -->
<g id="node4" class="node">
<title>:core:common</title>
<ellipse fill="none" stroke="black" cx="252.74" cy="-18" rx="75.29" ry="18"/>
<text text-anchor="middle" x="252.74" y="-14.3" font-family="Times,serif" font-size="14.00">:core:common</text>
</g>
<!-- :core:ui&#45;&gt;:core:common -->
<g id="edge3" class="edge">
<title>:core:ui&#45;&gt;:core:common</title>
<path fill="none" stroke="black" d="M205.83,-143.83C208.4,-125.58 213.6,-96.08 222.74,-72 226.27,-62.71 231.25,-53.09 236.14,-44.65"/>
<polygon fill="black" stroke="black" points="239.18,-46.38 241.34,-36.01 233.19,-42.77 239.18,-46.38"/>
</g>
<!-- :core:domain -->
<g id="node5" class="node">
<title>:core:domain</title>
<ellipse fill="none" stroke="black" cx="302.74" cy="-90" rx="70.69" ry="18"/>
<text text-anchor="middle" x="302.74" y="-86.3" font-family="Times,serif" font-size="14.00">:core:domain</text>
</g>
<!-- :core:ui&#45;&gt;:core:domain -->
<g id="edge4" class="edge">
<title>:core:ui&#45;&gt;:core:domain</title>
<path fill="none" stroke="red" stroke-width="2" d="M225.22,-145.81C238.72,-136.26 256.37,-123.79 271.42,-113.15"/>
<polygon fill="red" stroke="red" stroke-width="2" points="273.78,-115.76 279.92,-107.13 269.74,-110.05 273.78,-115.76"/>
</g>
<!-- :core:domain&#45;&gt;:core:common -->
<g id="edge5" class="edge">
<title>:core:domain&#45;&gt;:core:common</title>
<path fill="none" stroke="red" stroke-width="2" d="M290.64,-72.05C284.62,-63.63 277.23,-53.28 270.58,-43.97"/>
<polygon fill="red" stroke="red" stroke-width="2" points="273.39,-41.89 264.73,-35.79 267.7,-45.96 273.39,-41.89"/>
</g>
</g>
</svg>
