<?xml version="1.0" encoding="UTF-8" standalone="no"?>
<!DOCTYPE svg PUBLIC "-//W3C//DTD SVG 1.1//EN"
 "http://www.w3.org/Graphics/SVG/1.1/DTD/svg11.dtd">
<!-- Generated by graphviz version 2.43.0 (0)
 -->
<!-- Title: G Pages: 1 -->
<svg width="449pt" height="260pt"
 viewBox="0.00 0.00 449.38 260.00" xmlns="http://www.w3.org/2000/svg" xmlns:xlink="http://www.w3.org/1999/xlink">
<g id="graph0" class="graph" transform="scale(1 1) rotate(0) translate(4 256)">
<title>G</title>
<polygon fill="white" stroke="transparent" points="-4,4 -4,-256 445.38,-256 445.38,4 -4,4"/>
<!-- :features:home:data -->
<g id="node1" class="node">
<title>:features:home:data</title>
<ellipse fill="none" stroke="black" cx="213.64" cy="-234" rx="103.98" ry="18"/>
<text text-anchor="middle" x="213.64" y="-230.3" font-family="Times,serif" font-size="14.00">:features:home:data</text>
</g>
<!-- :features:home:domain -->
<g id="node2" class="node">
<title>:features:home:domain</title>
<ellipse fill="none" stroke="black" cx="117.64" cy="-162" rx="117.78" ry="18"/>
<text text-anchor="middle" x="117.64" y="-158.3" font-family="Times,serif" font-size="14.00">:features:home:domain</text>
</g>
<!-- :features:home:data&#45;&gt;:features:home:domain -->
<g id="edge1" class="edge">
<title>:features:home:data&#45;&gt;:features:home:domain</title>
<path fill="none" stroke="red" stroke-width="2" d="M190.89,-216.41C178.31,-207.24 162.49,-195.7 148.78,-185.71"/>
<polygon fill="red" stroke="red" stroke-width="2" points="150.7,-182.78 140.56,-179.71 146.58,-188.43 150.7,-182.78"/>
</g>
<!-- :core:data -->
<g id="node3" class="node">
<title>:core:data</title>
<ellipse fill="none" stroke="black" cx="310.64" cy="-162" rx="57.39" ry="18"/>
<text text-anchor="middle" x="310.64" y="-158.3" font-family="Times,serif" font-size="14.00">:core:data</text>
</g>
<!-- :features:home:data&#45;&gt;:core:data -->
<g id="edge2" class="edge">
<title>:features:home:data&#45;&gt;:core:data</title>
<path fill="none" stroke="black" d="M236.63,-216.41C249.71,-206.97 266.26,-195.03 280.38,-184.83"/>
<polygon fill="black" stroke="black" points="282.76,-187.44 288.82,-178.75 278.66,-181.76 282.76,-187.44"/>
</g>
<!-- :core:domain -->
<g id="node4" class="node">
<title>:core:domain</title>
<ellipse fill="none" stroke="black" cx="164.64" cy="-90" rx="70.69" ry="18"/>
<text text-anchor="middle" x="164.64" y="-86.3" font-family="Times,serif" font-size="14.00">:core:domain</text>
</g>
<!-- :features:home:domain&#45;&gt;:core:domain -->
<g id="edge3" class="edge">
<title>:features:home:domain&#45;&gt;:core:domain</title>
<path fill="none" stroke="red" stroke-width="2" d="M129.02,-144.05C134.62,-135.71 141.48,-125.49 147.68,-116.25"/>
<polygon fill="red" stroke="red" stroke-width="2" points="150.7,-118.04 153.37,-107.79 144.89,-114.14 150.7,-118.04"/>
</g>
<!-- :core:data&#45;&gt;:core:domain -->
<g id="edge7" class="edge">
<title>:core:data&#45;&gt;:core:domain</title>
<path fill="none" stroke="black" d="M280.39,-146.5C258.71,-136.1 229.27,-121.99 205.5,-110.59"/>
<polygon fill="black" stroke="black" points="206.9,-107.38 196.37,-106.21 203.87,-113.69 206.9,-107.38"/>
</g>
<!-- :core:common -->
<g id="node5" class="node">
<title>:core:common</title>
<ellipse fill="none" stroke="black" cx="263.64" cy="-18" rx="75.29" ry="18"/>
<text text-anchor="middle" x="263.64" y="-14.3" font-family="Times,serif" font-size="14.00">:core:common</text>
</g>
<!-- :core:data&#45;&gt;:core:common -->
<g id="edge5" class="edge">
<title>:core:data&#45;&gt;:core:common</title>
<path fill="none" stroke="black" d="M300.05,-143.89C294.18,-133.77 287.18,-120.52 282.64,-108 275.33,-87.86 270.43,-64.08 267.44,-46.17"/>
<polygon fill="black" stroke="black" points="270.87,-45.45 265.86,-36.12 263.96,-46.54 270.87,-45.45"/>
</g>
<!-- :core:network -->
<g id="node6" class="node">
<title>:core:network</title>
<ellipse fill="none" stroke="black" cx="366.64" cy="-90" rx="74.99" ry="18"/>
<text text-anchor="middle" x="366.64" y="-86.3" font-family="Times,serif" font-size="14.00">:core:network</text>
</g>
<!-- :core:data&#45;&gt;:core:network -->
<g id="edge6" class="edge">
<title>:core:data&#45;&gt;:core:network</title>
<path fill="none" stroke="black" d="M323.91,-144.41C330.72,-135.91 339.14,-125.37 346.71,-115.91"/>
<polygon fill="black" stroke="black" points="349.56,-117.95 353.07,-107.96 344.09,-113.58 349.56,-117.95"/>
</g>
<!-- :core:domain&#45;&gt;:core:common -->
<g id="edge4" class="edge">
<title>:core:domain&#45;&gt;:core:common</title>
<path fill="none" stroke="red" stroke-width="2" d="M187.6,-72.76C200.88,-63.38 217.76,-51.44 232.25,-41.19"/>
<polygon fill="red" stroke="red" stroke-width="2" points="234.32,-44.02 240.46,-35.39 230.27,-38.31 234.32,-44.02"/>
</g>
<!-- :core:network&#45;&gt;:core:common -->
<g id="edge8" class="edge">
<title>:core:network&#45;&gt;:core:common</title>
<path fill="none" stroke="black" d="M342.75,-72.76C328.84,-63.31 311.12,-51.26 295.97,-40.97"/>
<polygon fill="black" stroke="black" points="297.64,-37.87 287.4,-35.15 293.7,-43.66 297.64,-37.87"/>
</g>
</g>
</svg>
