<?xml version="1.0" encoding="UTF-8" standalone="no"?>
<!DOCTYPE svg PUBLIC "-//W3C//DTD SVG 1.1//EN"
 "http://www.w3.org/Graphics/SVG/1.1/DTD/svg11.dtd">
<!-- Generated by graphviz version 2.43.0 (0)
 -->
<!-- Title: G Pages: 1 -->
<svg width="581pt" height="332pt"
 viewBox="0.00 0.00 581.14 332.00" xmlns="http://www.w3.org/2000/svg" xmlns:xlink="http://www.w3.org/1999/xlink">
<g id="graph0" class="graph" transform="scale(1 1) rotate(0) translate(4 328)">
<title>G</title>
<polygon fill="white" stroke="transparent" points="-4,4 -4,-328 577.14,-328 577.14,4 -4,4"/>
<!-- :navigation -->
<g id="node1" class="node">
<title>:navigation</title>
<ellipse fill="none" stroke="black" cx="274.74" cy="-306" rx="62.29" ry="18"/>
<text text-anchor="middle" x="274.74" y="-302.3" font-family="Times,serif" font-size="14.00">:navigation</text>
</g>
<!-- :features:home:ui -->
<g id="node2" class="node">
<title>:features:home:ui</title>
<ellipse fill="none" stroke="black" cx="167.74" cy="-234" rx="92.08" ry="18"/>
<text text-anchor="middle" x="167.74" y="-230.3" font-family="Times,serif" font-size="14.00">:features:home:ui</text>
</g>
<!-- :navigation&#45;&gt;:features:home:ui -->
<g id="edge1" class="edge">
<title>:navigation&#45;&gt;:features:home:ui</title>
<path fill="none" stroke="black" d="M250.73,-289.29C236.17,-279.77 217.38,-267.47 201.36,-256.99"/>
<polygon fill="black" stroke="black" points="203.08,-253.93 192.79,-251.39 199.24,-259.79 203.08,-253.93"/>
</g>
<!-- :features:home:data -->
<g id="node3" class="node">
<title>:features:home:data</title>
<ellipse fill="none" stroke="black" cx="381.74" cy="-234" rx="103.98" ry="18"/>
<text text-anchor="middle" x="381.74" y="-230.3" font-family="Times,serif" font-size="14.00">:features:home:data</text>
</g>
<!-- :navigation&#45;&gt;:features:home:data -->
<g id="edge2" class="edge">
<title>:navigation&#45;&gt;:features:home:data</title>
<path fill="none" stroke="red" stroke-width="2" d="M298.76,-289.29C313.21,-279.84 331.84,-267.65 347.78,-257.22"/>
<polygon fill="red" stroke="red" stroke-width="2" points="349.87,-260.04 356.32,-251.63 346.03,-254.18 349.87,-260.04"/>
</g>
<!-- :core:ui -->
<g id="node4" class="node">
<title>:core:ui</title>
<ellipse fill="none" stroke="black" cx="87.74" cy="-162" rx="45.49" ry="18"/>
<text text-anchor="middle" x="87.74" y="-158.3" font-family="Times,serif" font-size="14.00">:core:ui</text>
</g>
<!-- :features:home:ui&#45;&gt;:core:ui -->
<g id="edge3" class="edge">
<title>:features:home:ui&#45;&gt;:core:ui</title>
<path fill="none" stroke="black" d="M148.38,-216.05C137.78,-206.78 124.53,-195.19 113.11,-185.2"/>
<polygon fill="black" stroke="black" points="115.39,-182.54 105.56,-178.59 110.78,-187.81 115.39,-182.54"/>
</g>
<!-- :features:home:domain -->
<g id="node5" class="node">
<title>:features:home:domain</title>
<ellipse fill="none" stroke="black" cx="268.74" cy="-162" rx="117.78" ry="18"/>
<text text-anchor="middle" x="268.74" y="-158.3" font-family="Times,serif" font-size="14.00">:features:home:domain</text>
</g>
<!-- :features:home:ui&#45;&gt;:features:home:domain -->
<g id="edge4" class="edge">
<title>:features:home:ui&#45;&gt;:features:home:domain</title>
<path fill="none" stroke="black" d="M191.42,-216.59C204.78,-207.33 221.66,-195.63 236.24,-185.53"/>
<polygon fill="black" stroke="black" points="238.28,-188.37 244.51,-179.8 234.3,-182.61 238.28,-188.37"/>
</g>
<!-- :features:home:data&#45;&gt;:features:home:domain -->
<g id="edge8" class="edge">
<title>:features:home:data&#45;&gt;:features:home:domain</title>
<path fill="none" stroke="black" d="M355.25,-216.59C340.06,-207.18 320.79,-195.24 304.3,-185.02"/>
<polygon fill="black" stroke="black" points="305.81,-181.84 295.46,-179.55 302.12,-187.79 305.81,-181.84"/>
</g>
<!-- :core:data -->
<g id="node8" class="node">
<title>:core:data</title>
<ellipse fill="none" stroke="black" cx="461.74" cy="-162" rx="57.39" ry="18"/>
<text text-anchor="middle" x="461.74" y="-158.3" font-family="Times,serif" font-size="14.00">:core:data</text>
</g>
<!-- :features:home:data&#45;&gt;:core:data -->
<g id="edge9" class="edge">
<title>:features:home:data&#45;&gt;:core:data</title>
<path fill="none" stroke="red" stroke-width="2" d="M401.11,-216.05C411.45,-207 424.33,-195.73 435.56,-185.91"/>
<polygon fill="red" stroke="red" stroke-width="2" points="438.16,-188.29 443.38,-179.07 433.55,-183.02 438.16,-188.29"/>
</g>
<!-- :core:component -->
<g id="node6" class="node">
<title>:core:component</title>
<ellipse fill="none" stroke="black" cx="87.74" cy="-90" rx="87.99" ry="18"/>
<text text-anchor="middle" x="87.74" y="-86.3" font-family="Times,serif" font-size="14.00">:core:component</text>
</g>
<!-- :core:ui&#45;&gt;:core:component -->
<g id="edge5" class="edge">
<title>:core:ui&#45;&gt;:core:component</title>
<path fill="none" stroke="black" d="M87.74,-143.7C87.74,-135.98 87.74,-126.71 87.74,-118.11"/>
<polygon fill="black" stroke="black" points="91.24,-118.1 87.74,-108.1 84.24,-118.1 91.24,-118.1"/>
</g>
<!-- :core:domain -->
<g id="node7" class="node">
<title>:core:domain</title>
<ellipse fill="none" stroke="black" cx="268.74" cy="-90" rx="70.69" ry="18"/>
<text text-anchor="middle" x="268.74" y="-86.3" font-family="Times,serif" font-size="14.00">:core:domain</text>
</g>
<!-- :core:ui&#45;&gt;:core:domain -->
<g id="edge6" class="edge">
<title>:core:ui&#45;&gt;:core:domain</title>
<path fill="none" stroke="black" d="M119.27,-148.81C147.63,-137.84 189.68,-121.58 221.96,-109.09"/>
<polygon fill="black" stroke="black" points="223.58,-112.22 231.64,-105.35 221.05,-105.69 223.58,-112.22"/>
</g>
<!-- :features:home:domain&#45;&gt;:core:domain -->
<g id="edge7" class="edge">
<title>:features:home:domain&#45;&gt;:core:domain</title>
<path fill="none" stroke="black" d="M268.74,-143.7C268.74,-135.98 268.74,-126.71 268.74,-118.11"/>
<polygon fill="black" stroke="black" points="272.24,-118.1 268.74,-108.1 265.24,-118.1 272.24,-118.1"/>
</g>
<!-- :core:data&#45;&gt;:core:domain -->
<g id="edge11" class="edge">
<title>:core:data&#45;&gt;:core:domain</title>
<path fill="none" stroke="black" d="M425.44,-147.83C394.83,-136.73 350.77,-120.75 317.15,-108.56"/>
<polygon fill="black" stroke="black" points="318.12,-105.19 307.53,-105.07 315.74,-111.77 318.12,-105.19"/>
</g>
<!-- :core:network -->
<g id="node9" class="node">
<title>:core:network</title>
<ellipse fill="none" stroke="black" cx="446.74" cy="-90" rx="74.99" ry="18"/>
<text text-anchor="middle" x="446.74" y="-86.3" font-family="Times,serif" font-size="14.00">:core:network</text>
</g>
<!-- :core:data&#45;&gt;:core:network -->
<g id="edge10" class="edge">
<title>:core:data&#45;&gt;:core:network</title>
<path fill="none" stroke="red" stroke-width="2" d="M458.03,-143.7C456.38,-135.98 454.39,-126.71 452.55,-118.11"/>
<polygon fill="red" stroke="red" stroke-width="2" points="455.93,-117.15 450.41,-108.1 449.08,-118.62 455.93,-117.15"/>
</g>
<!-- :core:common -->
<g id="node10" class="node">
<title>:core:common</title>
<ellipse fill="none" stroke="black" cx="497.74" cy="-18" rx="75.29" ry="18"/>
<text text-anchor="middle" x="497.74" y="-14.3" font-family="Times,serif" font-size="14.00">:core:common</text>
</g>
<!-- :core:data&#45;&gt;:core:common -->
<g id="edge12" class="edge">
<title>:core:data&#45;&gt;:core:common</title>
<path fill="none" stroke="black" d="M491.61,-146.44C506.28,-137.55 522.53,-124.67 530.74,-108 541.01,-87.17 529.97,-62.3 517.97,-44.15"/>
<polygon fill="black" stroke="black" points="520.72,-41.98 512.09,-35.83 515,-46.02 520.72,-41.98"/>
</g>
<!-- :core:network&#45;&gt;:core:common -->
<g id="edge13" class="edge">
<title>:core:network&#45;&gt;:core:common</title>
<path fill="none" stroke="red" stroke-width="2" d="M459.09,-72.05C465.23,-63.63 472.77,-53.28 479.55,-43.97"/>
<polygon fill="red" stroke="red" stroke-width="2" points="482.45,-45.93 485.51,-35.79 476.79,-41.81 482.45,-45.93"/>
</g>
</g>
</svg>
