<?xml version="1.0" encoding="UTF-8" standalone="no"?>
<!DOCTYPE svg PUBLIC "-//W3C//DTD SVG 1.1//EN"
 "http://www.w3.org/Graphics/SVG/1.1/DTD/svg11.dtd">
<!-- Generated by graphviz version 2.43.0 (0)
 -->
<!-- Title: G Pages: 1 -->
<svg width="333pt" height="188pt"
 viewBox="0.00 0.00 332.64 188.00" xmlns="http://www.w3.org/2000/svg" xmlns:xlink="http://www.w3.org/1999/xlink">
<g id="graph0" class="graph" transform="scale(1 1) rotate(0) translate(4 184)">
<title>G</title>
<polygon fill="white" stroke="transparent" points="-4,4 -4,-184 328.64,-184 328.64,4 -4,4"/>
<!-- :core:data -->
<g id="node1" class="node">
<title>:core:data</title>
<ellipse fill="none" stroke="black" cx="89.79" cy="-162" rx="57.39" ry="18"/>
<text text-anchor="middle" x="89.79" y="-158.3" font-family="Times,serif" font-size="14.00">:core:data</text>
</g>
<!-- :core:common -->
<g id="node2" class="node">
<title>:core:common</title>
<ellipse fill="none" stroke="black" cx="89.79" cy="-18" rx="75.29" ry="18"/>
<text text-anchor="middle" x="89.79" y="-14.3" font-family="Times,serif" font-size="14.00">:core:common</text>
</g>
<!-- :core:data&#45;&gt;:core:common -->
<g id="edge1" class="edge">
<title>:core:data&#45;&gt;:core:common</title>
<path fill="none" stroke="black" d="M53.63,-147.99C35.83,-139.53 16.04,-126.57 5.79,-108 -1.93,-93.99 -1.93,-86.01 5.79,-72 13.72,-57.63 27.36,-46.62 41.37,-38.46"/>
<polygon fill="black" stroke="black" points="43.43,-41.32 50.57,-33.5 40.11,-35.16 43.43,-41.32"/>
</g>
<!-- :core:network -->
<g id="node3" class="node">
<title>:core:network</title>
<ellipse fill="none" stroke="black" cx="89.79" cy="-90" rx="74.99" ry="18"/>
<text text-anchor="middle" x="89.79" y="-86.3" font-family="Times,serif" font-size="14.00">:core:network</text>
</g>
<!-- :core:data&#45;&gt;:core:network -->
<g id="edge2" class="edge">
<title>:core:data&#45;&gt;:core:network</title>
<path fill="none" stroke="red" stroke-width="2" d="M89.79,-143.7C89.79,-135.98 89.79,-126.71 89.79,-118.11"/>
<polygon fill="red" stroke="red" stroke-width="2" points="93.29,-118.1 89.79,-108.1 86.29,-118.1 93.29,-118.1"/>
</g>
<!-- :core:domain -->
<g id="node4" class="node">
<title>:core:domain</title>
<ellipse fill="none" stroke="black" cx="253.79" cy="-90" rx="70.69" ry="18"/>
<text text-anchor="middle" x="253.79" y="-86.3" font-family="Times,serif" font-size="14.00">:core:domain</text>
</g>
<!-- :core:data&#45;&gt;:core:domain -->
<g id="edge3" class="edge">
<title>:core:data&#45;&gt;:core:domain</title>
<path fill="none" stroke="black" d="M122.59,-147C147.59,-136.33 182.28,-121.53 209.7,-109.82"/>
<polygon fill="black" stroke="black" points="211.25,-112.96 219.08,-105.82 208.51,-106.53 211.25,-112.96"/>
</g>
<!-- :core:network&#45;&gt;:core:common -->
<g id="edge4" class="edge">
<title>:core:network&#45;&gt;:core:common</title>
<path fill="none" stroke="red" stroke-width="2" d="M89.79,-71.7C89.79,-63.98 89.79,-54.71 89.79,-46.11"/>
<polygon fill="red" stroke="red" stroke-width="2" points="93.29,-46.1 89.79,-36.1 86.29,-46.1 93.29,-46.1"/>
</g>
<!-- :core:domain&#45;&gt;:core:common -->
<g id="edge5" class="edge">
<title>:core:domain&#45;&gt;:core:common</title>
<path fill="none" stroke="black" d="M219.01,-74.15C194.31,-63.61 160.93,-49.36 134.29,-37.99"/>
<polygon fill="black" stroke="black" points="135.38,-34.65 124.81,-33.94 132.63,-41.09 135.38,-34.65"/>
</g>
</g>
</svg>
