<?xml version="1.0" encoding="UTF-8" standalone="no"?>
<!DOCTYPE svg PUBLIC "-//W3C//DTD SVG 1.1//EN"
 "http://www.w3.org/Graphics/SVG/1.1/DTD/svg11.dtd">
<!-- Generated by graphviz version 2.43.0 (0)
 -->
<!-- Title: G Pages: 1 -->
<svg width="394pt" height="188pt"
 viewBox="0.00 0.00 394.38 188.00" xmlns="http://www.w3.org/2000/svg" xmlns:xlink="http://www.w3.org/1999/xlink">
<g id="graph0" class="graph" transform="scale(1 1) rotate(0) translate(4 184)">
<title>G</title>
<polygon fill="white" stroke="transparent" points="-4,4 -4,-184 390.38,-184 390.38,4 -4,4"/>
<!-- :features:home:ui -->
<g id="node1" class="node">
<title>:features:home:ui</title>
<ellipse fill="none" stroke="black" cx="177.74" cy="-162" rx="92.08" ry="18"/>
<text text-anchor="middle" x="177.74" y="-158.3" font-family="Times,serif" font-size="14.00">:features:home:ui</text>
</g>
<!-- :core:ui -->
<g id="node2" class="node">
<title>:core:ui</title>
<ellipse fill="none" stroke="black" cx="87.74" cy="-90" rx="45.49" ry="18"/>
<text text-anchor="middle" x="87.74" y="-86.3" font-family="Times,serif" font-size="14.00">:core:ui</text>
</g>
<!-- :features:home:ui&#45;&gt;:core:ui -->
<g id="edge1" class="edge">
<title>:features:home:ui&#45;&gt;:core:ui</title>
<path fill="none" stroke="red" stroke-width="2" d="M156.41,-144.41C144.22,-134.93 128.78,-122.92 115.63,-112.69"/>
<polygon fill="red" stroke="red" stroke-width="2" points="117.42,-109.65 107.38,-106.27 113.12,-115.18 117.42,-109.65"/>
</g>
<!-- :features:home:domain -->
<g id="node3" class="node">
<title>:features:home:domain</title>
<ellipse fill="none" stroke="black" cx="268.74" cy="-90" rx="117.78" ry="18"/>
<text text-anchor="middle" x="268.74" y="-86.3" font-family="Times,serif" font-size="14.00">:features:home:domain</text>
</g>
<!-- :features:home:ui&#45;&gt;:features:home:domain -->
<g id="edge2" class="edge">
<title>:features:home:ui&#45;&gt;:features:home:domain</title>
<path fill="none" stroke="black" d="M199.31,-144.41C211.12,-135.32 225.94,-123.92 238.86,-113.99"/>
<polygon fill="black" stroke="black" points="241.22,-116.58 247.02,-107.71 236.96,-111.04 241.22,-116.58"/>
</g>
<!-- :core:component -->
<g id="node4" class="node">
<title>:core:component</title>
<ellipse fill="none" stroke="black" cx="87.74" cy="-18" rx="87.99" ry="18"/>
<text text-anchor="middle" x="87.74" y="-14.3" font-family="Times,serif" font-size="14.00">:core:component</text>
</g>
<!-- :core:ui&#45;&gt;:core:component -->
<g id="edge3" class="edge">
<title>:core:ui&#45;&gt;:core:component</title>
<path fill="none" stroke="red" stroke-width="2" d="M87.74,-71.7C87.74,-63.98 87.74,-54.71 87.74,-46.11"/>
<polygon fill="red" stroke="red" stroke-width="2" points="91.24,-46.1 87.74,-36.1 84.24,-46.1 91.24,-46.1"/>
</g>
<!-- :core:domain -->
<g id="node5" class="node">
<title>:core:domain</title>
<ellipse fill="none" stroke="black" cx="266.74" cy="-18" rx="70.69" ry="18"/>
<text text-anchor="middle" x="266.74" y="-14.3" font-family="Times,serif" font-size="14.00">:core:domain</text>
</g>
<!-- :core:ui&#45;&gt;:core:domain -->
<g id="edge4" class="edge">
<title>:core:ui&#45;&gt;:core:domain</title>
<path fill="none" stroke="black" d="M118.92,-76.81C146.88,-65.87 188.29,-49.68 220.17,-37.21"/>
<polygon fill="black" stroke="black" points="221.7,-40.37 229.73,-33.47 219.15,-33.85 221.7,-40.37"/>
</g>
<!-- :features:home:domain&#45;&gt;:core:domain -->
<g id="edge5" class="edge">
<title>:features:home:domain&#45;&gt;:core:domain</title>
<path fill="none" stroke="black" d="M268.25,-71.7C268.03,-63.98 267.76,-54.71 267.52,-46.11"/>
<polygon fill="black" stroke="black" points="271.02,-46 267.23,-36.1 264.02,-46.2 271.02,-46"/>
</g>
</g>
</svg>
