<?xml version="1.0" encoding="UTF-8" standalone="no"?>
<!DOCTYPE svg PUBLIC "-//W3C//DTD SVG 1.1//EN"
 "http://www.w3.org/Graphics/SVG/1.1/DTD/svg11.dtd">
<!-- Generated by graphviz version 2.43.0 (0)
 -->
<!-- Title: G Pages: 1 -->
<svg width="623pt" height="332pt"
 viewBox="0.00 0.00 623.49 332.00" xmlns="http://www.w3.org/2000/svg" xmlns:xlink="http://www.w3.org/1999/xlink">
<g id="graph0" class="graph" transform="scale(1 1) rotate(0) translate(4 328)">
<title>G</title>
<polygon fill="white" stroke="transparent" points="-4,4 -4,-328 619.49,-328 619.49,4 -4,4"/>
<!-- :app -->
<g id="node1" class="node">
<title>:app</title>
<ellipse fill="none" stroke="black" cx="304.74" cy="-306" rx="30.59" ry="18"/>
<text text-anchor="middle" x="304.74" y="-302.3" font-family="Times,serif" font-size="14.00">:app</text>
</g>
<!-- :core:network -->
<g id="node2" class="node">
<title>:core:network</title>
<ellipse fill="none" stroke="black" cx="74.74" cy="-234" rx="74.99" ry="18"/>
<text text-anchor="middle" x="74.74" y="-230.3" font-family="Times,serif" font-size="14.00">:core:network</text>
</g>
<!-- :app&#45;&gt;:core:network -->
<g id="edge1" class="edge">
<title>:app&#45;&gt;:core:network</title>
<path fill="none" stroke="black" d="M277.91,-296.83C241.51,-285.76 175.67,-265.72 128.81,-251.45"/>
<polygon fill="black" stroke="black" points="129.7,-248.07 119.11,-248.5 127.66,-254.76 129.7,-248.07"/>
</g>
<!-- :core:component -->
<g id="node3" class="node">
<title>:core:component</title>
<ellipse fill="none" stroke="black" cx="527.74" cy="-18" rx="87.99" ry="18"/>
<text text-anchor="middle" x="527.74" y="-14.3" font-family="Times,serif" font-size="14.00">:core:component</text>
</g>
<!-- :app&#45;&gt;:core:component -->
<g id="edge2" class="edge">
<title>:app&#45;&gt;:core:component</title>
<path fill="none" stroke="black" d="M330.14,-295.59C372.98,-278.56 460.08,-238.88 512.74,-180 546.2,-142.59 553.92,-121.52 545.74,-72 544.3,-63.28 541.61,-54.06 538.74,-45.8"/>
<polygon fill="black" stroke="black" points="541.98,-44.46 535.22,-36.3 535.41,-46.89 541.98,-44.46"/>
</g>
<!-- :navigation -->
<g id="node4" class="node">
<title>:navigation</title>
<ellipse fill="none" stroke="black" cx="304.74" cy="-234" rx="62.29" ry="18"/>
<text text-anchor="middle" x="304.74" y="-230.3" font-family="Times,serif" font-size="14.00">:navigation</text>
</g>
<!-- :app&#45;&gt;:navigation -->
<g id="edge3" class="edge">
<title>:app&#45;&gt;:navigation</title>
<path fill="none" stroke="red" stroke-width="2" d="M304.74,-287.7C304.74,-279.98 304.74,-270.71 304.74,-262.11"/>
<polygon fill="red" stroke="red" stroke-width="2" points="308.24,-262.1 304.74,-252.1 301.24,-262.1 308.24,-262.1"/>
</g>
<!-- :core:common -->
<g id="node5" class="node">
<title>:core:common</title>
<ellipse fill="none" stroke="black" cx="75.74" cy="-18" rx="75.29" ry="18"/>
<text text-anchor="middle" x="75.74" y="-14.3" font-family="Times,serif" font-size="14.00">:core:common</text>
</g>
<!-- :core:network&#45;&gt;:core:common -->
<g id="edge4" class="edge">
<title>:core:network&#45;&gt;:core:common</title>
<path fill="none" stroke="black" d="M68.37,-215.94C58.2,-186.39 40.54,-123.89 51.74,-72 53.7,-62.92 57.36,-53.52 61.23,-45.2"/>
<polygon fill="black" stroke="black" points="64.47,-46.53 65.79,-36.02 58.21,-43.42 64.47,-46.53"/>
</g>
<!-- :features:home:ui -->
<g id="node6" class="node">
<title>:features:home:ui</title>
<ellipse fill="none" stroke="black" cx="411.74" cy="-162" rx="92.08" ry="18"/>
<text text-anchor="middle" x="411.74" y="-158.3" font-family="Times,serif" font-size="14.00">:features:home:ui</text>
</g>
<!-- :navigation&#45;&gt;:features:home:ui -->
<g id="edge5" class="edge">
<title>:navigation&#45;&gt;:features:home:ui</title>
<path fill="none" stroke="red" stroke-width="2" d="M328.76,-217.29C343.31,-207.77 362.11,-195.47 378.12,-184.99"/>
<polygon fill="red" stroke="red" stroke-width="2" points="380.24,-187.79 386.69,-179.39 376.41,-181.93 380.24,-187.79"/>
</g>
<!-- :features:home:data -->
<g id="node7" class="node">
<title>:features:home:data</title>
<ellipse fill="none" stroke="black" cx="197.74" cy="-162" rx="103.98" ry="18"/>
<text text-anchor="middle" x="197.74" y="-158.3" font-family="Times,serif" font-size="14.00">:features:home:data</text>
</g>
<!-- :navigation&#45;&gt;:features:home:data -->
<g id="edge6" class="edge">
<title>:navigation&#45;&gt;:features:home:data</title>
<path fill="none" stroke="black" d="M280.73,-217.29C266.28,-207.84 247.65,-195.65 231.71,-185.22"/>
<polygon fill="black" stroke="black" points="233.45,-182.18 223.17,-179.63 229.62,-188.04 233.45,-182.18"/>
</g>
<!-- :core:ui -->
<g id="node8" class="node">
<title>:core:ui</title>
<ellipse fill="none" stroke="black" cx="491.74" cy="-90" rx="45.49" ry="18"/>
<text text-anchor="middle" x="491.74" y="-86.3" font-family="Times,serif" font-size="14.00">:core:ui</text>
</g>
<!-- :features:home:ui&#45;&gt;:core:ui -->
<g id="edge7" class="edge">
<title>:features:home:ui&#45;&gt;:core:ui</title>
<path fill="none" stroke="red" stroke-width="2" d="M431.11,-144.05C441.7,-134.78 454.96,-123.19 466.37,-113.2"/>
<polygon fill="red" stroke="red" stroke-width="2" points="468.7,-115.81 473.92,-106.59 464.09,-110.54 468.7,-115.81"/>
</g>
<!-- :features:home:domain -->
<g id="node9" class="node">
<title>:features:home:domain</title>
<ellipse fill="none" stroke="black" cx="310.74" cy="-90" rx="117.78" ry="18"/>
<text text-anchor="middle" x="310.74" y="-86.3" font-family="Times,serif" font-size="14.00">:features:home:domain</text>
</g>
<!-- :features:home:ui&#45;&gt;:features:home:domain -->
<g id="edge8" class="edge">
<title>:features:home:ui&#45;&gt;:features:home:domain</title>
<path fill="none" stroke="black" d="M388.06,-144.59C374.71,-135.33 357.83,-123.63 343.25,-113.53"/>
<polygon fill="black" stroke="black" points="345.19,-110.61 334.98,-107.8 341.2,-116.37 345.19,-110.61"/>
</g>
<!-- :features:home:data&#45;&gt;:features:home:domain -->
<g id="edge12" class="edge">
<title>:features:home:data&#45;&gt;:features:home:domain</title>
<path fill="none" stroke="black" d="M224.24,-144.59C239.43,-135.18 258.7,-123.24 275.19,-113.02"/>
<polygon fill="black" stroke="black" points="277.37,-115.79 284.02,-107.55 273.68,-109.84 277.37,-115.79"/>
</g>
<!-- :core:data -->
<g id="node11" class="node">
<title>:core:data</title>
<ellipse fill="none" stroke="black" cx="117.74" cy="-90" rx="57.39" ry="18"/>
<text text-anchor="middle" x="117.74" y="-86.3" font-family="Times,serif" font-size="14.00">:core:data</text>
</g>
<!-- :features:home:data&#45;&gt;:core:data -->
<g id="edge13" class="edge">
<title>:features:home:data&#45;&gt;:core:data</title>
<path fill="none" stroke="black" d="M178.38,-144.05C168.03,-135 155.15,-123.73 143.93,-113.91"/>
<polygon fill="black" stroke="black" points="145.94,-111.02 136.11,-107.07 141.33,-116.29 145.94,-111.02"/>
</g>
<!-- :core:ui&#45;&gt;:core:component -->
<g id="edge9" class="edge">
<title>:core:ui&#45;&gt;:core:component</title>
<path fill="none" stroke="red" stroke-width="2" d="M500.46,-72.05C504.6,-64.01 509.64,-54.2 514.26,-45.23"/>
<polygon fill="red" stroke="red" stroke-width="2" points="517.4,-46.77 518.86,-36.28 511.17,-43.57 517.4,-46.77"/>
</g>
<!-- :core:domain -->
<g id="node10" class="node">
<title>:core:domain</title>
<ellipse fill="none" stroke="black" cx="310.74" cy="-18" rx="70.69" ry="18"/>
<text text-anchor="middle" x="310.74" y="-14.3" font-family="Times,serif" font-size="14.00">:core:domain</text>
</g>
<!-- :core:ui&#45;&gt;:core:domain -->
<g id="edge10" class="edge">
<title>:core:ui&#45;&gt;:core:domain</title>
<path fill="none" stroke="black" d="M460.22,-76.81C431.85,-65.84 389.8,-49.58 357.52,-37.09"/>
<polygon fill="black" stroke="black" points="358.43,-33.69 347.84,-33.35 355.91,-40.22 358.43,-33.69"/>
</g>
<!-- :features:home:domain&#45;&gt;:core:domain -->
<g id="edge11" class="edge">
<title>:features:home:domain&#45;&gt;:core:domain</title>
<path fill="none" stroke="black" d="M310.74,-71.7C310.74,-63.98 310.74,-54.71 310.74,-46.11"/>
<polygon fill="black" stroke="black" points="314.24,-46.1 310.74,-36.1 307.24,-46.1 314.24,-46.1"/>
</g>
<!-- :core:data&#45;&gt;:core:common -->
<g id="edge15" class="edge">
<title>:core:data&#45;&gt;:core:common</title>
<path fill="none" stroke="black" d="M107.58,-72.05C102.7,-63.92 96.74,-54 91.31,-44.94"/>
<polygon fill="black" stroke="black" points="94.25,-43.05 86.11,-36.28 88.25,-46.65 94.25,-43.05"/>
</g>
<!-- :core:data&#45;&gt;:core:domain -->
<g id="edge14" class="edge">
<title>:core:data&#45;&gt;:core:domain</title>
<path fill="none" stroke="black" d="M154.05,-75.83C184.66,-64.73 228.72,-48.75 262.33,-36.56"/>
<polygon fill="black" stroke="black" points="263.75,-39.77 271.96,-33.07 261.36,-33.19 263.75,-39.77"/>
</g>
</g>
</svg>
