<?xml version="1.0" encoding="UTF-8" standalone="no"?>
<!DOCTYPE svg PUBLIC "-//W3C//DTD SVG 1.1//EN"
 "http://www.w3.org/Graphics/SVG/1.1/DTD/svg11.dtd">
<!-- Generated by graphviz version 2.43.0 (0)
 -->
<!-- Title: G Pages: 1 -->
<svg width="1063pt" height="404pt"
 viewBox="0.00 0.00 1062.53 404.00" xmlns="http://www.w3.org/2000/svg" xmlns:xlink="http://www.w3.org/1999/xlink">
<g id="graph0" class="graph" transform="scale(1 1) rotate(0) translate(4 400)">
<title>G</title>
<polygon fill="white" stroke="transparent" points="-4,4 -4,-400 1058.53,-400 1058.53,4 -4,4"/>
<!-- :app -->
<g id="node1" class="node">
<title>:app</title>
<ellipse fill="none" stroke="black" cx="335.74" cy="-378" rx="30.59" ry="18"/>
<text text-anchor="middle" x="335.74" y="-374.3" font-family="Times,serif" font-size="14.00">:app</text>
</g>
<!-- :core:component -->
<g id="node2" class="node">
<title>:core:component</title>
<ellipse fill="none" stroke="black" cx="87.74" cy="-90" rx="87.99" ry="18"/>
<text text-anchor="middle" x="87.74" y="-86.3" font-family="Times,serif" font-size="14.00">:core:component</text>
</g>
<!-- :app&#45;&gt;:core:component -->
<g id="edge1" class="edge">
<title>:app&#45;&gt;:core:component</title>
<path fill="none" stroke="black" d="M306.88,-371.99C253.02,-360.98 137.86,-329.21 84.74,-252 57.24,-212.03 68.41,-152.26 78.45,-117.91"/>
<polygon fill="black" stroke="black" points="81.87,-118.7 81.49,-108.11 75.18,-116.63 81.87,-118.7"/>
</g>
<!-- :navigation -->
<g id="node3" class="node">
<title>:navigation</title>
<ellipse fill="none" stroke="black" cx="290.74" cy="-306" rx="62.29" ry="18"/>
<text text-anchor="middle" x="290.74" y="-302.3" font-family="Times,serif" font-size="14.00">:navigation</text>
</g>
<!-- :app&#45;&gt;:navigation -->
<g id="edge2" class="edge">
<title>:app&#45;&gt;:navigation</title>
<path fill="none" stroke="red" stroke-width="2" d="M325.31,-360.76C319.95,-352.44 313.31,-342.1 307.28,-332.73"/>
<polygon fill="red" stroke="red" stroke-width="2" points="310.1,-330.64 301.75,-324.12 304.21,-334.43 310.1,-330.64"/>
</g>
<!-- :features:home:data -->
<g id="node4" class="node">
<title>:features:home:data</title>
<ellipse fill="none" stroke="black" cx="853.74" cy="-234" rx="103.98" ry="18"/>
<text text-anchor="middle" x="853.74" y="-230.3" font-family="Times,serif" font-size="14.00">:features:home:data</text>
</g>
<!-- :app&#45;&gt;:features:home:data -->
<g id="edge3" class="edge">
<title>:app&#45;&gt;:features:home:data</title>
<path fill="none" stroke="black" d="M362.86,-369.57C442.48,-347.74 677.06,-283.44 790.66,-252.29"/>
<polygon fill="black" stroke="black" points="791.89,-255.58 800.61,-249.57 790.04,-248.83 791.89,-255.58"/>
</g>
<!-- :features:detail:data -->
<g id="node5" class="node">
<title>:features:detail:data</title>
<ellipse fill="none" stroke="black" cx="626.74" cy="-234" rx="104.78" ry="18"/>
<text text-anchor="middle" x="626.74" y="-230.3" font-family="Times,serif" font-size="14.00">:features:detail:data</text>
</g>
<!-- :app&#45;&gt;:features:detail:data -->
<g id="edge4" class="edge">
<title>:app&#45;&gt;:features:detail:data</title>
<path fill="none" stroke="black" d="M358.58,-365.86C407.26,-342.1 521.9,-286.16 584.36,-255.68"/>
<polygon fill="black" stroke="black" points="586.1,-258.73 593.56,-251.19 583.03,-252.43 586.1,-258.73"/>
</g>
<!-- :navigation&#45;&gt;:core:component -->
<g id="edge5" class="edge">
<title>:navigation&#45;&gt;:core:component</title>
<path fill="none" stroke="black" d="M228.43,-303.89C187.58,-299.64 136.43,-286.97 106.74,-252 75.05,-214.67 77.66,-153.71 82.59,-118.48"/>
<polygon fill="black" stroke="black" points="86.07,-118.85 84.15,-108.43 79.15,-117.77 86.07,-118.85"/>
</g>
<!-- :features:home:ui -->
<g id="node6" class="node">
<title>:features:home:ui</title>
<ellipse fill="none" stroke="black" cx="411.74" cy="-234" rx="92.08" ry="18"/>
<text text-anchor="middle" x="411.74" y="-230.3" font-family="Times,serif" font-size="14.00">:features:home:ui</text>
</g>
<!-- :navigation&#45;&gt;:features:home:ui -->
<g id="edge6" class="edge">
<title>:navigation&#45;&gt;:features:home:ui</title>
<path fill="none" stroke="red" stroke-width="2" d="M317.3,-289.64C334.16,-279.88 356.21,-267.12 374.77,-256.39"/>
<polygon fill="red" stroke="red" stroke-width="2" points="376.66,-259.34 383.57,-251.3 373.16,-253.28 376.66,-259.34"/>
</g>
<!-- :features:detail:ui -->
<g id="node7" class="node">
<title>:features:detail:ui</title>
<ellipse fill="none" stroke="black" cx="208.74" cy="-234" rx="92.88" ry="18"/>
<text text-anchor="middle" x="208.74" y="-230.3" font-family="Times,serif" font-size="14.00">:features:detail:ui</text>
</g>
<!-- :navigation&#45;&gt;:features:detail:ui -->
<g id="edge7" class="edge">
<title>:navigation&#45;&gt;:features:detail:ui</title>
<path fill="none" stroke="black" d="M271.72,-288.76C261.11,-279.71 247.72,-268.27 236.01,-258.28"/>
<polygon fill="black" stroke="black" points="238.11,-255.46 228.23,-251.63 233.56,-260.79 238.11,-255.46"/>
</g>
<!-- :features:home:domain -->
<g id="node9" class="node">
<title>:features:home:domain</title>
<ellipse fill="none" stroke="black" cx="620.74" cy="-162" rx="117.78" ry="18"/>
<text text-anchor="middle" x="620.74" y="-158.3" font-family="Times,serif" font-size="14.00">:features:home:domain</text>
</g>
<!-- :features:home:data&#45;&gt;:features:home:domain -->
<g id="edge18" class="edge">
<title>:features:home:data&#45;&gt;:features:home:domain</title>
<path fill="none" stroke="black" d="M804.33,-218.15C768.52,-207.4 719.89,-192.79 681.67,-181.31"/>
<polygon fill="black" stroke="black" points="682.28,-177.83 671.7,-178.31 680.27,-184.54 682.28,-177.83"/>
</g>
<!-- :core:data -->
<g id="node13" class="node">
<title>:core:data</title>
<ellipse fill="none" stroke="black" cx="813.74" cy="-162" rx="57.39" ry="18"/>
<text text-anchor="middle" x="813.74" y="-158.3" font-family="Times,serif" font-size="14.00">:core:data</text>
</g>
<!-- :features:home:data&#45;&gt;:core:data -->
<g id="edge19" class="edge">
<title>:features:home:data&#45;&gt;:core:data</title>
<path fill="none" stroke="black" d="M844.06,-216.05C839.34,-207.8 833.57,-197.7 828.34,-188.54"/>
<polygon fill="black" stroke="black" points="831.34,-186.73 823.34,-179.79 825.26,-190.21 831.34,-186.73"/>
</g>
<!-- :core:pagination -->
<g id="node14" class="node">
<title>:core:pagination</title>
<ellipse fill="none" stroke="black" cx="968.74" cy="-90" rx="85.59" ry="18"/>
<text text-anchor="middle" x="968.74" y="-86.3" font-family="Times,serif" font-size="14.00">:core:pagination</text>
</g>
<!-- :features:home:data&#45;&gt;:core:pagination -->
<g id="edge20" class="edge">
<title>:features:home:data&#45;&gt;:core:pagination</title>
<path fill="none" stroke="black" d="M867.39,-216.15C887.53,-191.28 925.36,-144.57 948.67,-115.79"/>
<polygon fill="black" stroke="black" points="951.54,-117.8 955.12,-107.82 946.1,-113.39 951.54,-117.8"/>
</g>
<!-- :features:detail:domain -->
<g id="node12" class="node">
<title>:features:detail:domain</title>
<ellipse fill="none" stroke="black" cx="366.74" cy="-162" rx="118.08" ry="18"/>
<text text-anchor="middle" x="366.74" y="-158.3" font-family="Times,serif" font-size="14.00">:features:detail:domain</text>
</g>
<!-- :features:detail:data&#45;&gt;:features:detail:domain -->
<g id="edge27" class="edge">
<title>:features:detail:data&#45;&gt;:features:detail:domain</title>
<path fill="none" stroke="black" d="M572.87,-218.5C532.02,-207.5 475.7,-192.33 432.25,-180.64"/>
<polygon fill="black" stroke="black" points="432.91,-177.19 422.34,-177.97 431.09,-183.95 432.91,-177.19"/>
</g>
<!-- :features:detail:data&#45;&gt;:core:data -->
<g id="edge26" class="edge">
<title>:features:detail:data&#45;&gt;:core:data</title>
<path fill="none" stroke="black" d="M668.24,-217.46C698.05,-206.31 738.2,-191.28 768.77,-179.84"/>
<polygon fill="black" stroke="black" points="770.19,-183.04 778.33,-176.26 767.74,-176.48 770.19,-183.04"/>
</g>
<!-- :core:ui -->
<g id="node8" class="node">
<title>:core:ui</title>
<ellipse fill="none" stroke="black" cx="184.74" cy="-162" rx="45.49" ry="18"/>
<text text-anchor="middle" x="184.74" y="-158.3" font-family="Times,serif" font-size="14.00">:core:ui</text>
</g>
<!-- :features:home:ui&#45;&gt;:core:ui -->
<g id="edge8" class="edge">
<title>:features:home:ui&#45;&gt;:core:ui</title>
<path fill="none" stroke="red" stroke-width="2" d="M364.65,-218.5C330.08,-207.86 281.99,-193.04 239.74,-180 236.24,-178.92 232.62,-177.8 228.97,-176.67"/>
<polygon fill="red" stroke="red" stroke-width="2" points="229.95,-173.31 219.36,-173.71 227.88,-180 229.95,-173.31"/>
</g>
<!-- :features:home:ui&#45;&gt;:features:home:domain -->
<g id="edge9" class="edge">
<title>:features:home:ui&#45;&gt;:features:home:domain</title>
<path fill="none" stroke="black" d="M456.07,-218.15C487.69,-207.56 530.48,-193.23 564.51,-181.83"/>
<polygon fill="black" stroke="black" points="565.94,-185.05 574.31,-178.55 563.72,-178.41 565.94,-185.05"/>
</g>
<!-- :features:detail:ui&#45;&gt;:core:ui -->
<g id="edge15" class="edge">
<title>:features:detail:ui&#45;&gt;:core:ui</title>
<path fill="none" stroke="black" d="M202.81,-215.7C200.14,-207.9 196.92,-198.51 193.94,-189.83"/>
<polygon fill="black" stroke="black" points="197.16,-188.43 190.61,-180.1 190.54,-190.7 197.16,-188.43"/>
</g>
<!-- :features:detail:ui&#45;&gt;:features:detail:domain -->
<g id="edge16" class="edge">
<title>:features:detail:ui&#45;&gt;:features:detail:domain</title>
<path fill="none" stroke="black" d="M244.2,-217.29C266.85,-207.26 296.45,-194.14 320.88,-183.32"/>
<polygon fill="black" stroke="black" points="322.58,-186.39 330.31,-179.14 319.75,-179.99 322.58,-186.39"/>
</g>
<!-- :core:ui&#45;&gt;:core:component -->
<g id="edge10" class="edge">
<title>:core:ui&#45;&gt;:core:component</title>
<path fill="none" stroke="black" d="M163.69,-145.81C150.65,-136.4 133.66,-124.14 119.06,-113.6"/>
<polygon fill="black" stroke="black" points="120.94,-110.64 110.78,-107.63 116.84,-116.32 120.94,-110.64"/>
</g>
<!-- :core:common -->
<g id="node10" class="node">
<title>:core:common</title>
<ellipse fill="none" stroke="black" cx="686.74" cy="-18" rx="75.29" ry="18"/>
<text text-anchor="middle" x="686.74" y="-14.3" font-family="Times,serif" font-size="14.00">:core:common</text>
</g>
<!-- :core:ui&#45;&gt;:core:common -->
<g id="edge11" class="edge">
<title>:core:ui&#45;&gt;:core:common</title>
<path fill="none" stroke="black" d="M219.32,-150.16C226.08,-148.08 233.13,-145.95 239.74,-144 378.98,-103.02 543.57,-57.83 628.9,-34.64"/>
<polygon fill="black" stroke="black" points="629.93,-37.98 638.66,-31.99 628.09,-31.23 629.93,-37.98"/>
</g>
<!-- :core:domain -->
<g id="node11" class="node">
<title>:core:domain</title>
<ellipse fill="none" stroke="black" cx="587.74" cy="-90" rx="70.69" ry="18"/>
<text text-anchor="middle" x="587.74" y="-86.3" font-family="Times,serif" font-size="14.00">:core:domain</text>
</g>
<!-- :core:ui&#45;&gt;:core:domain -->
<g id="edge12" class="edge">
<title>:core:ui&#45;&gt;:core:domain</title>
<path fill="none" stroke="red" stroke-width="2" d="M218.27,-149.77C225.31,-147.66 232.73,-145.61 239.74,-144 333.14,-122.58 442.67,-107.52 513.54,-99.06"/>
<polygon fill="red" stroke="red" stroke-width="2" points="514.18,-102.51 523.7,-97.86 513.36,-95.56 514.18,-102.51"/>
</g>
<!-- :features:home:domain&#45;&gt;:core:domain -->
<g id="edge14" class="edge">
<title>:features:home:domain&#45;&gt;:core:domain</title>
<path fill="none" stroke="black" d="M612.58,-143.7C608.83,-135.73 604.29,-126.1 600.12,-117.26"/>
<polygon fill="black" stroke="black" points="603.24,-115.66 595.81,-108.1 596.9,-118.64 603.24,-115.66"/>
</g>
<!-- :core:domain&#45;&gt;:core:common -->
<g id="edge13" class="edge">
<title>:core:domain&#45;&gt;:core:common</title>
<path fill="none" stroke="red" stroke-width="2" d="M610.7,-72.76C623.98,-63.38 640.87,-51.44 655.36,-41.19"/>
<polygon fill="red" stroke="red" stroke-width="2" points="657.42,-44.02 663.56,-35.39 653.38,-38.31 657.42,-44.02"/>
</g>
<!-- :features:detail:domain&#45;&gt;:core:domain -->
<g id="edge17" class="edge">
<title>:features:detail:domain&#45;&gt;:core:domain</title>
<path fill="none" stroke="black" d="M415.52,-145.55C450.95,-134.33 498.86,-119.15 535.15,-107.66"/>
<polygon fill="black" stroke="black" points="536.59,-110.87 545.06,-104.52 534.47,-104.2 536.59,-110.87"/>
</g>
<!-- :core:data&#45;&gt;:core:common -->
<g id="edge21" class="edge">
<title>:core:data&#45;&gt;:core:common</title>
<path fill="none" stroke="black" d="M771,-149.93C748.34,-141.91 721.93,-128.75 705.74,-108 692.11,-90.53 687.71,-65.49 686.52,-46.41"/>
<polygon fill="black" stroke="black" points="690.02,-46.11 686.15,-36.25 683.02,-46.37 690.02,-46.11"/>
</g>
<!-- :core:data&#45;&gt;:core:domain -->
<g id="edge23" class="edge">
<title>:core:data&#45;&gt;:core:domain</title>
<path fill="none" stroke="black" d="M774.38,-148.81C737.34,-137.34 681.61,-120.07 640.69,-107.4"/>
<polygon fill="black" stroke="black" points="641.48,-103.98 630.89,-104.36 639.41,-110.67 641.48,-103.98"/>
</g>
<!-- :core:network -->
<g id="node15" class="node">
<title>:core:network</title>
<ellipse fill="none" stroke="black" cx="789.74" cy="-90" rx="74.99" ry="18"/>
<text text-anchor="middle" x="789.74" y="-86.3" font-family="Times,serif" font-size="14.00">:core:network</text>
</g>
<!-- :core:data&#45;&gt;:core:network -->
<g id="edge22" class="edge">
<title>:core:data&#45;&gt;:core:network</title>
<path fill="none" stroke="black" d="M807.93,-144.05C805.23,-136.18 801.95,-126.62 798.93,-117.79"/>
<polygon fill="black" stroke="black" points="802.22,-116.6 795.67,-108.28 795.6,-118.87 802.22,-116.6"/>
</g>
<!-- :core:pagination&#45;&gt;:core:common -->
<g id="edge25" class="edge">
<title>:core:pagination&#45;&gt;:core:common</title>
<path fill="none" stroke="black" d="M915.7,-75.83C867.69,-63.92 797.02,-46.37 746.91,-33.94"/>
<polygon fill="black" stroke="black" points="747.72,-30.53 737.18,-31.52 746.04,-37.33 747.72,-30.53"/>
</g>
<!-- :core:network&#45;&gt;:core:common -->
<g id="edge24" class="edge">
<title>:core:network&#45;&gt;:core:common</title>
<path fill="none" stroke="black" d="M765.85,-72.76C751.94,-63.31 734.22,-51.26 719.07,-40.97"/>
<polygon fill="black" stroke="black" points="720.74,-37.87 710.5,-35.15 716.81,-43.66 720.74,-37.87"/>
</g>
</g>
</svg>
