<?xml version="1.0" encoding="UTF-8" standalone="no"?>
<!DOCTYPE svg PUBLIC "-//W3C//DTD SVG 1.1//EN"
 "http://www.w3.org/Graphics/SVG/1.1/DTD/svg11.dtd">
<!-- Generated by graphviz version 2.43.0 (0)
 -->
<!-- Title: G Pages: 1 -->
<svg width="437pt" height="260pt"
 viewBox="0.00 0.00 437.03 260.00" xmlns="http://www.w3.org/2000/svg" xmlns:xlink="http://www.w3.org/1999/xlink">
<g id="graph0" class="graph" transform="scale(1 1) rotate(0) translate(4 256)">
<title>G</title>
<polygon fill="white" stroke="transparent" points="-4,4 -4,-256 433.03,-256 433.03,4 -4,4"/>
<!-- :features:home:data -->
<g id="node1" class="node">
<title>:features:home:data</title>
<ellipse fill="none" stroke="black" cx="213.64" cy="-234" rx="103.98" ry="18"/>
<text text-anchor="middle" x="213.64" y="-230.3" font-family="Times,serif" font-size="14.00">:features:home:data</text>
</g>
<!-- :features:home:domain -->
<g id="node2" class="node">
<title>:features:home:domain</title>
<ellipse fill="none" stroke="black" cx="117.64" cy="-162" rx="117.78" ry="18"/>
<text text-anchor="middle" x="117.64" y="-158.3" font-family="Times,serif" font-size="14.00">:features:home:domain</text>
</g>
<!-- :features:home:data&#45;&gt;:features:home:domain -->
<g id="edge1" class="edge">
<title>:features:home:data&#45;&gt;:features:home:domain</title>
<path fill="none" stroke="black" d="M190.89,-216.41C178.31,-207.24 162.49,-195.7 148.78,-185.71"/>
<polygon fill="black" stroke="black" points="150.7,-182.78 140.56,-179.71 146.58,-188.43 150.7,-182.78"/>
</g>
<!-- :core:data -->
<g id="node3" class="node">
<title>:core:data</title>
<ellipse fill="none" stroke="black" cx="310.64" cy="-162" rx="57.39" ry="18"/>
<text text-anchor="middle" x="310.64" y="-158.3" font-family="Times,serif" font-size="14.00">:core:data</text>
</g>
<!-- :features:home:data&#45;&gt;:core:data -->
<g id="edge2" class="edge">
<title>:features:home:data&#45;&gt;:core:data</title>
<path fill="none" stroke="red" stroke-width="2" d="M236.63,-216.41C249.71,-206.97 266.26,-195.03 280.38,-184.83"/>
<polygon fill="red" stroke="red" stroke-width="2" points="282.76,-187.44 288.82,-178.75 278.66,-181.76 282.76,-187.44"/>
</g>
<!-- :core:domain -->
<g id="node4" class="node">
<title>:core:domain</title>
<ellipse fill="none" stroke="black" cx="131.64" cy="-90" rx="70.69" ry="18"/>
<text text-anchor="middle" x="131.64" y="-86.3" font-family="Times,serif" font-size="14.00">:core:domain</text>
</g>
<!-- :features:home:domain&#45;&gt;:core:domain -->
<g id="edge3" class="edge">
<title>:features:home:domain&#45;&gt;:core:domain</title>
<path fill="none" stroke="black" d="M121.1,-143.7C122.64,-135.98 124.5,-126.71 126.22,-118.11"/>
<polygon fill="black" stroke="black" points="129.69,-118.6 128.22,-108.1 122.83,-117.22 129.69,-118.6"/>
</g>
<!-- :core:data&#45;&gt;:core:domain -->
<g id="edge5" class="edge">
<title>:core:data&#45;&gt;:core:domain</title>
<path fill="none" stroke="black" d="M276.13,-147.5C248.26,-136.61 208.78,-121.17 178.13,-109.18"/>
<polygon fill="black" stroke="black" points="179.1,-105.8 168.51,-105.42 176.55,-112.32 179.1,-105.8"/>
</g>
<!-- :core:network -->
<g id="node5" class="node">
<title>:core:network</title>
<ellipse fill="none" stroke="black" cx="302.64" cy="-90" rx="74.99" ry="18"/>
<text text-anchor="middle" x="302.64" y="-86.3" font-family="Times,serif" font-size="14.00">:core:network</text>
</g>
<!-- :core:data&#45;&gt;:core:network -->
<g id="edge4" class="edge">
<title>:core:data&#45;&gt;:core:network</title>
<path fill="none" stroke="red" stroke-width="2" d="M308.66,-143.7C307.78,-135.98 306.72,-126.71 305.74,-118.11"/>
<polygon fill="red" stroke="red" stroke-width="2" points="309.21,-117.64 304.59,-108.1 302.25,-118.44 309.21,-117.64"/>
</g>
<!-- :core:common -->
<g id="node6" class="node">
<title>:core:common</title>
<ellipse fill="none" stroke="black" cx="353.64" cy="-18" rx="75.29" ry="18"/>
<text text-anchor="middle" x="353.64" y="-14.3" font-family="Times,serif" font-size="14.00">:core:common</text>
</g>
<!-- :core:data&#45;&gt;:core:common -->
<g id="edge6" class="edge">
<title>:core:data&#45;&gt;:core:common</title>
<path fill="none" stroke="black" d="M343.45,-147.15C359.58,-138.46 377.49,-125.54 386.64,-108 397.38,-87.41 386.3,-62.52 374.16,-44.3"/>
<polygon fill="black" stroke="black" points="376.86,-42.05 368.21,-35.94 371.16,-46.11 376.86,-42.05"/>
</g>
<!-- :core:network&#45;&gt;:core:common -->
<g id="edge7" class="edge">
<title>:core:network&#45;&gt;:core:common</title>
<path fill="none" stroke="red" stroke-width="2" d="M314.99,-72.05C321.12,-63.63 328.66,-53.28 335.45,-43.97"/>
<polygon fill="red" stroke="red" stroke-width="2" points="338.35,-45.93 341.41,-35.79 332.69,-41.81 338.35,-45.93"/>
</g>
</g>
</svg>
